<svg width="402" height="256" viewBox="0 0 402 256" fill="none" xmlns="http://www.w3.org/2000/svg">
<path fill-rule="evenodd" clip-rule="evenodd" d="M192 256H63.9998C52.2238 256 42.6665 246.443 42.6665 234.667V21.3333C42.6665 9.55733 52.2238 0 63.9998 0H192C203.776 0 213.333 9.55733 213.333 21.3333V234.667C213.333 246.443 203.776 256 192 256ZM202.667 201.781H53.3332V234.667C53.3332 240.555 58.1225 245.333 63.9998 245.333H192C197.888 245.333 202.667 240.555 202.667 234.667V201.781ZM128 233.781C122.101 233.781 117.333 229.003 117.333 223.115C117.333 217.227 122.101 212.448 128 212.448C133.888 212.448 138.656 217.227 138.656 223.115C138.656 229.003 133.888 233.781 128 233.781ZM202.667 52.448H53.3332V191.115H202.667V52.448ZM192 10.6667H63.9998C58.1225 10.6667 53.3332 15.456 53.3332 21.3333V41.7813H202.667V21.3333C202.667 15.456 197.888 10.6667 192 10.6667ZM144 31.1147H112C109.056 31.1147 106.667 28.7253 106.667 25.7813C106.667 22.8373 109.056 20.448 112 20.448H144C146.944 20.448 149.333 22.8373 149.333 25.7813C149.333 28.7253 146.944 31.1147 144 31.1147Z" fill="black"/>
<path d="M4.788 102V72.6H7.896V99.312H24.36V102H4.788ZM37.5503 102.21C35.4223 102.21 33.5043 101.734 31.7963 100.782C30.1163 99.802 28.7863 98.472 27.8063 96.792C26.8263 95.084 26.3363 93.138 26.3363 90.954C26.3363 88.742 26.8263 86.796 27.8063 85.116C28.7863 83.436 30.1163 82.12 31.7963 81.168C33.4763 80.216 35.3943 79.74 37.5503 79.74C39.7343 79.74 41.6663 80.216 43.3463 81.168C45.0543 82.12 46.3843 83.436 47.3363 85.116C48.3163 86.796 48.8063 88.742 48.8063 90.954C48.8063 93.138 48.3163 95.084 47.3363 96.792C46.3843 98.472 45.0543 99.802 43.3463 100.782C41.6383 101.734 39.7063 102.21 37.5503 102.21ZM37.5503 99.564C39.1463 99.564 40.5603 99.214 41.7923 98.514C43.0243 97.786 43.9903 96.778 44.6903 95.49C45.4183 94.174 45.7823 92.662 45.7823 90.954C45.7823 89.218 45.4183 87.706 44.6903 86.418C43.9903 85.13 43.0243 84.136 41.7923 83.436C40.5603 82.708 39.1603 82.344 37.5923 82.344C36.0243 82.344 34.6243 82.708 33.3923 83.436C32.1603 84.136 31.1803 85.13 30.4523 86.418C29.7243 87.706 29.3603 89.218 29.3603 90.954C29.3603 92.662 29.7243 94.174 30.4523 95.49C31.1803 96.778 32.1603 97.786 33.3923 98.514C34.6243 99.214 36.0103 99.564 37.5503 99.564ZM54.8943 102V79.95H57.7503V85.956L57.4563 84.906C58.0723 83.226 59.1083 81.952 60.5643 81.084C62.0203 80.188 63.8263 79.74 65.9823 79.74V82.638C65.8703 82.638 65.7583 82.638 65.6463 82.638C65.5343 82.61 65.4223 82.596 65.3103 82.596C62.9863 82.596 61.1663 83.31 59.8503 84.738C58.5343 86.138 57.8763 88.14 57.8763 90.744V102H54.8943ZM80.5845 102.21C78.2885 102.21 76.2725 101.734 74.5365 100.782C72.8005 99.802 71.4425 98.472 70.4625 96.792C69.4825 95.084 68.9925 93.138 68.9925 90.954C68.9925 88.77 69.4545 86.838 70.3785 85.158C71.3305 83.478 72.6185 82.162 74.2425 81.21C75.8945 80.23 77.7425 79.74 79.7865 79.74C81.8585 79.74 83.6925 80.216 85.2885 81.168C86.9125 82.092 88.1865 83.408 89.1105 85.116C90.0345 86.796 90.4965 88.742 90.4965 90.954C90.4965 91.094 90.4825 91.248 90.4545 91.416C90.4545 91.556 90.4545 91.71 90.4545 91.878H71.2605V89.652H88.8585L87.6825 90.534C87.6825 88.938 87.3325 87.524 86.6325 86.292C85.9605 85.032 85.0365 84.052 83.8605 83.352C82.6845 82.652 81.3265 82.302 79.7865 82.302C78.2745 82.302 76.9165 82.652 75.7125 83.352C74.5085 84.052 73.5705 85.032 72.8985 86.292C72.2265 87.552 71.8905 88.994 71.8905 90.618V91.08C71.8905 92.76 72.2545 94.244 72.9825 95.532C73.7385 96.792 74.7745 97.786 76.0905 98.514C77.4345 99.214 78.9605 99.564 80.6685 99.564C82.0125 99.564 83.2585 99.326 84.4065 98.85C85.5825 98.374 86.5905 97.646 87.4305 96.666L89.1105 98.598C88.1305 99.774 86.8985 100.67 85.4145 101.286C83.9585 101.902 82.3485 102.21 80.5845 102.21ZM124.118 79.74C125.91 79.74 127.464 80.09 128.78 80.79C130.124 81.462 131.16 82.498 131.888 83.898C132.644 85.298 133.022 87.062 133.022 89.19V102H130.04V89.484C130.04 87.16 129.48 85.41 128.36 84.234C127.268 83.03 125.714 82.428 123.698 82.428C122.186 82.428 120.87 82.75 119.75 83.394C118.658 84.01 117.804 84.92 117.188 86.124C116.6 87.3 116.306 88.728 116.306 90.408V102H113.324V89.484C113.324 87.16 112.764 85.41 111.644 84.234C110.524 83.03 108.956 82.428 106.94 82.428C105.456 82.428 104.154 82.75 103.034 83.394C101.914 84.01 101.046 84.92 100.43 86.124C99.8422 87.3 99.5482 88.728 99.5482 90.408V102H96.5662V79.95H99.4222V85.914L98.9602 84.864C99.6322 83.268 100.71 82.022 102.194 81.126C103.706 80.202 105.484 79.74 107.528 79.74C109.684 79.74 111.518 80.286 113.03 81.378C114.542 82.442 115.522 84.052 115.97 86.208L114.794 85.746C115.438 83.954 116.572 82.512 118.196 81.42C119.848 80.3 121.822 79.74 124.118 79.74ZM152.101 102V79.95H155.083V102H152.101ZM153.613 75.078C152.997 75.078 152.479 74.868 152.059 74.448C151.639 74.028 151.429 73.524 151.429 72.936C151.429 72.348 151.639 71.858 152.059 71.466C152.479 71.046 152.997 70.836 153.613 70.836C154.229 70.836 154.747 71.032 155.167 71.424C155.587 71.816 155.797 72.306 155.797 72.894C155.797 73.51 155.587 74.028 155.167 74.448C154.775 74.868 154.257 75.078 153.613 75.078ZM174.763 102.21C172.859 102.21 171.137 101.776 169.597 100.908C168.057 100.012 166.825 98.738 165.901 97.086C165.005 95.406 164.557 93.362 164.557 90.954C164.557 88.546 165.005 86.516 165.901 84.864C166.797 83.184 168.015 81.91 169.555 81.042C171.095 80.174 172.831 79.74 174.763 79.74C176.863 79.74 178.739 80.216 180.391 81.168C182.071 82.092 183.387 83.408 184.339 85.116C185.291 86.796 185.767 88.742 185.767 90.954C185.767 93.194 185.291 95.154 184.339 96.834C183.387 98.514 182.071 99.83 180.391 100.782C178.739 101.734 176.863 102.21 174.763 102.21ZM163.381 110.148V79.95H166.237V86.586L165.943 90.996L166.363 95.448V110.148H163.381ZM174.553 99.564C176.121 99.564 177.521 99.214 178.753 98.514C179.985 97.786 180.965 96.778 181.693 95.49C182.421 94.174 182.785 92.662 182.785 90.954C182.785 89.246 182.421 87.748 181.693 86.46C180.965 85.172 179.985 84.164 178.753 83.436C177.521 82.708 176.121 82.344 174.553 82.344C172.985 82.344 171.571 82.708 170.311 83.436C169.079 84.164 168.099 85.172 167.371 86.46C166.671 87.748 166.321 89.246 166.321 90.954C166.321 92.662 166.671 94.174 167.371 95.49C168.099 96.778 169.079 97.786 170.311 98.514C171.571 99.214 172.985 99.564 174.553 99.564ZM197.768 102.21C195.948 102.21 194.226 101.958 192.602 101.454C190.978 100.922 189.704 100.264 188.78 99.48L190.124 97.128C191.02 97.8 192.168 98.388 193.568 98.892C194.968 99.368 196.438 99.606 197.978 99.606C200.078 99.606 201.59 99.284 202.514 98.64C203.438 97.968 203.9 97.086 203.9 95.994C203.9 95.182 203.634 94.552 203.102 94.104C202.598 93.628 201.926 93.278 201.086 93.054C200.246 92.802 199.308 92.592 198.272 92.424C197.236 92.256 196.2 92.06 195.164 91.836C194.156 91.612 193.232 91.29 192.392 90.87C191.552 90.422 190.866 89.82 190.334 89.064C189.83 88.308 189.578 87.3 189.578 86.04C189.578 84.836 189.914 83.758 190.586 82.806C191.258 81.854 192.238 81.112 193.526 80.58C194.842 80.02 196.438 79.74 198.314 79.74C199.742 79.74 201.17 79.936 202.598 80.328C204.026 80.692 205.202 81.182 206.126 81.798L204.824 84.192C203.844 83.52 202.794 83.044 201.674 82.764C200.554 82.456 199.434 82.302 198.314 82.302C196.326 82.302 194.856 82.652 193.904 83.352C192.98 84.024 192.518 84.892 192.518 85.956C192.518 86.796 192.77 87.454 193.274 87.93C193.806 88.406 194.492 88.784 195.332 89.064C196.2 89.316 197.138 89.526 198.146 89.694C199.182 89.862 200.204 90.072 201.212 90.324C202.248 90.548 203.186 90.87 204.026 91.29C204.894 91.682 205.58 92.256 206.084 93.012C206.616 93.74 206.882 94.706 206.882 95.91C206.882 97.198 206.518 98.318 205.79 99.27C205.09 100.194 204.054 100.922 202.682 101.454C201.338 101.958 199.7 102.21 197.768 102.21ZM221.467 102.21C219.591 102.21 217.953 101.86 216.553 101.16C215.153 100.46 214.061 99.41 213.277 98.01C212.521 96.61 212.143 94.86 212.143 92.76V79.95H215.125V92.424C215.125 94.776 215.699 96.554 216.847 97.758C218.023 98.934 219.661 99.522 221.761 99.522C223.301 99.522 224.631 99.214 225.751 98.598C226.899 97.954 227.767 97.03 228.355 95.826C228.971 94.622 229.279 93.18 229.279 91.5V79.95H232.261V102H229.405V95.952L229.867 97.044C229.167 98.668 228.075 99.942 226.591 100.866C225.135 101.762 223.427 102.21 221.467 102.21ZM268.124 79.74C269.916 79.74 271.47 80.09 272.786 80.79C274.13 81.462 275.166 82.498 275.894 83.898C276.65 85.298 277.028 87.062 277.028 89.19V102H274.046V89.484C274.046 87.16 273.486 85.41 272.366 84.234C271.274 83.03 269.72 82.428 267.704 82.428C266.192 82.428 264.876 82.75 263.756 83.394C262.664 84.01 261.81 84.92 261.194 86.124C260.606 87.3 260.312 88.728 260.312 90.408V102H257.33V89.484C257.33 87.16 256.77 85.41 255.65 84.234C254.53 83.03 252.962 82.428 250.946 82.428C249.462 82.428 248.16 82.75 247.04 83.394C245.92 84.01 245.052 84.92 244.436 86.124C243.848 87.3 243.554 88.728 243.554 90.408V102H240.572V79.95H243.428V85.914L242.966 84.864C243.638 83.268 244.716 82.022 246.2 81.126C247.712 80.202 249.49 79.74 251.534 79.74C253.69 79.74 255.524 80.286 257.036 81.378C258.548 82.442 259.528 84.052 259.976 86.208L258.8 85.746C259.444 83.954 260.578 82.512 262.202 81.42C263.854 80.3 265.828 79.74 268.124 79.74ZM304.885 102.21C302.785 102.21 300.895 101.734 299.215 100.782C297.563 99.83 296.261 98.514 295.309 96.834C294.357 95.126 293.881 93.166 293.881 90.954C293.881 88.714 294.357 86.754 295.309 85.074C296.261 83.394 297.563 82.092 299.215 81.168C300.895 80.216 302.785 79.74 304.885 79.74C306.817 79.74 308.539 80.174 310.051 81.042C311.591 81.91 312.809 83.184 313.705 84.864C314.629 86.516 315.091 88.546 315.091 90.954C315.091 93.334 314.643 95.364 313.747 97.044C312.851 98.724 311.633 100.012 310.093 100.908C308.581 101.776 306.845 102.21 304.885 102.21ZM305.095 99.564C306.663 99.564 308.063 99.214 309.295 98.514C310.555 97.786 311.535 96.778 312.235 95.49C312.963 94.174 313.327 92.662 313.327 90.954C313.327 89.218 312.963 87.706 312.235 86.418C311.535 85.13 310.555 84.136 309.295 83.436C308.063 82.708 306.663 82.344 305.095 82.344C303.555 82.344 302.169 82.708 300.937 83.436C299.705 84.136 298.725 85.13 297.997 86.418C297.269 87.706 296.905 89.218 296.905 90.954C296.905 92.662 297.269 94.174 297.997 95.49C298.725 96.778 299.705 97.786 300.937 98.514C302.169 99.214 303.555 99.564 305.095 99.564ZM313.411 102V95.364L313.705 90.912L313.285 86.46V70.836H316.267V102H313.411ZM333.56 102.21C331.432 102.21 329.514 101.734 327.806 100.782C326.126 99.802 324.796 98.472 323.816 96.792C322.836 95.084 322.346 93.138 322.346 90.954C322.346 88.742 322.836 86.796 323.816 85.116C324.796 83.436 326.126 82.12 327.806 81.168C329.486 80.216 331.404 79.74 333.56 79.74C335.744 79.74 337.676 80.216 339.356 81.168C341.064 82.12 342.394 83.436 343.346 85.116C344.326 86.796 344.816 88.742 344.816 90.954C344.816 93.138 344.326 95.084 343.346 96.792C342.394 98.472 341.064 99.802 339.356 100.782C337.648 101.734 335.716 102.21 333.56 102.21ZM333.56 99.564C335.156 99.564 336.57 99.214 337.802 98.514C339.034 97.786 340 96.778 340.7 95.49C341.428 94.174 341.792 92.662 341.792 90.954C341.792 89.218 341.428 87.706 340.7 86.418C340 85.13 339.034 84.136 337.802 83.436C336.57 82.708 335.17 82.344 333.602 82.344C332.034 82.344 330.634 82.708 329.402 83.436C328.17 84.136 327.19 85.13 326.462 86.418C325.734 87.706 325.37 89.218 325.37 90.954C325.37 92.662 325.734 94.174 326.462 95.49C327.19 96.778 328.17 97.786 329.402 98.514C330.634 99.214 332.02 99.564 333.56 99.564ZM350.904 102V70.836H353.886V102H350.904ZM371.171 102.21C369.043 102.21 367.125 101.734 365.417 100.782C363.737 99.802 362.407 98.472 361.427 96.792C360.447 95.084 359.957 93.138 359.957 90.954C359.957 88.742 360.447 86.796 361.427 85.116C362.407 83.436 363.737 82.12 365.417 81.168C367.097 80.216 369.015 79.74 371.171 79.74C373.355 79.74 375.287 80.216 376.967 81.168C378.675 82.12 380.005 83.436 380.957 85.116C381.937 86.796 382.427 88.742 382.427 90.954C382.427 93.138 381.937 95.084 380.957 96.792C380.005 98.472 378.675 99.802 376.967 100.782C375.259 101.734 373.327 102.21 371.171 102.21ZM371.171 99.564C372.767 99.564 374.181 99.214 375.413 98.514C376.645 97.786 377.611 96.778 378.311 95.49C379.039 94.174 379.403 92.662 379.403 90.954C379.403 89.218 379.039 87.706 378.311 86.418C377.611 85.13 376.645 84.136 375.413 83.436C374.181 82.708 372.781 82.344 371.213 82.344C369.645 82.344 368.245 82.708 367.013 83.436C365.781 84.136 364.801 85.13 364.073 86.418C363.345 87.706 362.981 89.218 362.981 90.954C362.981 92.662 363.345 94.174 364.073 95.49C364.801 96.778 365.781 97.786 367.013 98.514C368.245 99.214 369.631 99.564 371.171 99.564ZM388.515 102V79.95H391.371V85.956L391.077 84.906C391.693 83.226 392.729 81.952 394.185 81.084C395.641 80.188 397.447 79.74 399.603 79.74V82.638C399.491 82.638 399.379 82.638 399.267 82.638C399.155 82.61 399.043 82.596 398.931 82.596C396.607 82.596 394.787 83.31 393.471 84.738C392.155 86.138 391.497 88.14 391.497 90.744V102H388.515Z" fill="black"/>
</svg>
