<svg width="584" height="86" viewBox="0 0 584 86" fill="none" xmlns="http://www.w3.org/2000/svg">
<path d="M7.2 60.488C6.304 60.712 5.24 60.7307 4.008 60.544C2.776 60.3573 1.78667 60.0027 1.04 59.48C1.936 59.7787 2.98133 59.816 4.176 59.592C5.408 59.3307 6.416 58.9573 7.2 58.472C6.64 58.584 5.968 58.584 5.184 58.472C4.43733 58.36 3.82133 58.136 3.336 57.8C3.896 57.912 4.568 57.9307 5.352 57.856C6.136 57.744 6.752 57.5013 7.2 57.128C6.34133 57.3893 5.31467 57.4453 4.12 57.296C2.96267 57.1467 2.01067 56.8293 1.264 56.344C2.12267 56.568 3.14933 56.624 4.344 56.512C5.53867 56.4 6.49067 56.0827 7.2 55.56C6.60267 55.0373 5.76267 54.608 4.68 54.272C3.63467 53.936 2.72 53.768 1.936 53.768C2.496 53.2827 3.26133 52.872 4.232 52.536C5.24 52.2 6.136 52.0133 6.92 51.976C6.28533 51.9387 5.576 51.752 4.792 51.416C4.008 51.0427 3.42933 50.6507 3.056 50.24C3.69067 50.24 4.43733 50.0533 5.296 49.68C6.15467 49.3067 6.78933 48.896 7.2 48.448C6.416 47.888 5.38933 47.496 4.12 47.272C2.85067 47.048 1.74933 47.0667 0.816 47.328C1.712 46.768 2.79467 46.3573 4.064 46.096C2.86933 45.872 1.84267 45.4987 0.984 44.976C1.88 45.2 2.944 45.1813 4.176 44.92C5.408 44.6213 6.416 44.2293 7.2 43.744C6.416 43.3333 5.44533 43.0533 4.288 42.904C3.13067 42.7173 2.14133 42.7733 1.32 43.072C2.06667 42.5867 3.01867 42.288 4.176 42.176C5.37067 42.0267 6.37867 42.1013 7.2 42.4C6.864 42.0267 6.34133 41.672 5.632 41.336C4.92267 41 4.30667 40.832 3.784 40.832C4.12 40.4587 4.64267 40.104 5.352 39.768C6.06133 39.432 6.67733 39.264 7.2 39.264C6.78933 38.8533 6.17333 38.536 5.352 38.312C4.568 38.088 3.896 37.9947 3.336 38.032C3.70933 37.6587 4.232 37.3787 4.904 37.192C5.61333 36.968 6.248 36.8373 6.808 36.8C6.32267 36.7627 5.76267 36.6133 5.128 36.352C4.53067 36.0533 4.08267 35.7173 3.784 35.344C4.30667 35.3813 4.904 35.2507 5.576 34.952C6.28533 34.616 6.82667 34.2613 7.2 33.888C6.49067 33.9627 5.65067 33.8693 4.68 33.608C3.70933 33.3093 2.944 32.936 2.384 32.488C3.09333 32.5627 3.93333 32.4507 4.904 32.152C5.87467 31.816 6.64 31.4427 7.2 31.032C6.56533 30.9573 5.78133 30.7333 4.848 30.36C3.952 29.9493 3.29867 29.5013 2.888 29.016C3.52267 28.9787 4.288 28.7547 5.184 28.344C6.08 27.9333 6.752 27.4853 7.2 27C6.60267 26.9627 5.89333 26.7947 5.072 26.496C4.288 26.16 3.672 25.7867 3.224 25.376C3.82133 25.4133 4.53067 25.3013 5.352 25.04C6.21067 24.7787 6.864 24.4427 7.312 24.032C7.088 23.0613 7.144 21.9413 7.48 20.672C7.816 19.3653 8.24533 18.3013 8.768 17.48C8.656 18.1147 8.656 18.8613 8.768 19.72C8.91733 20.5413 9.16 21.344 9.496 22.128C9.832 22.8747 10.224 23.472 10.672 23.92C10.6347 23.136 10.7653 22.2213 11.064 21.176C11.4 20.1307 11.8293 19.3093 12.352 18.712C12.24 19.496 12.352 20.4293 12.688 21.512C13.024 22.5573 13.472 23.36 14.032 23.92C13.8453 23.0613 13.808 22.0533 13.92 20.896C14.0693 19.7387 14.3867 18.8053 14.872 18.096C14.648 18.9547 14.6107 19.9627 14.76 21.12C14.9467 22.2773 15.2827 23.2107 15.768 23.92C16.3653 23.8453 17.0187 23.5467 17.728 23.024C18.4373 22.5013 18.9413 21.9787 19.24 21.456C19.352 22.016 19.3333 22.744 19.184 23.64C19.0347 24.4987 18.7547 25.152 18.344 25.6C19.0907 25.0027 20.0613 24.4987 21.256 24.088C22.4507 23.6773 23.5147 23.5093 24.448 23.584C23.5893 23.92 22.6933 24.536 21.76 25.432C20.864 26.328 20.2293 27.2053 19.856 28.064C20.4533 27.4293 21.2933 26.9627 22.376 26.664C23.4587 26.328 24.4667 26.1413 25.4 26.104C25.8853 25.7307 26.52 25.432 27.304 25.208C28.088 24.9467 28.76 24.872 29.32 24.984C29.1333 24.4987 29.0027 23.9013 28.928 23.192C28.8907 22.4453 28.9467 21.8293 29.096 21.344C29.2453 21.8293 29.6 22.3333 30.16 22.856C30.72 23.3787 31.224 23.7333 31.672 23.92C32.1573 23.3973 32.5307 22.6693 32.792 21.736C33.0533 20.7653 33.1653 19.9253 33.128 19.216C33.6133 19.7387 34.0053 20.4853 34.304 21.456C34.6027 22.3893 34.696 23.2107 34.584 23.92C34.9947 23.6587 35.4053 23.1547 35.816 22.408C36.264 21.624 36.5067 20.9707 36.544 20.448C36.992 20.7467 37.4213 21.2693 37.832 22.016C38.28 22.7627 38.504 23.3973 38.504 23.92C39.1013 23.248 39.6427 22.3707 40.128 21.288C40.6507 20.2053 40.8373 19.216 40.688 18.32C41.024 19.1413 41.136 20.1493 41.024 21.344C40.912 22.5387 40.6507 23.528 40.24 24.312C41.0613 24.0507 42.032 24.032 43.152 24.256C44.3093 24.4427 45.2427 24.7973 45.952 25.32C45.1307 25.0213 44.1413 25.0027 42.984 25.264C41.864 25.488 40.9493 25.8427 40.24 26.328C41.024 26.0293 41.9947 25.9547 43.152 26.104C44.3093 26.2533 45.224 26.5893 45.896 27.112C45.0747 26.888 44.104 26.8507 42.984 27C41.864 27.112 40.9493 27.4107 40.24 27.896C41.1733 27.672 42.256 27.672 43.488 27.896C44.7573 28.12 45.784 28.4933 46.568 29.016C45.6347 28.8293 44.5333 28.8293 43.264 29.016C41.9947 29.1653 40.9867 29.5387 40.24 30.136C40.8373 30.696 41.696 31.1627 42.816 31.536C43.936 31.9093 44.9067 32.0773 45.728 32.04C45.28 32.488 44.608 32.8987 43.712 33.272C42.8533 33.6453 42.032 33.8693 41.248 33.944C41.9947 33.9813 42.76 34.1493 43.544 34.448C44.328 34.7467 44.9253 35.12 45.336 35.568C44.5893 35.4933 43.6747 35.624 42.592 35.96C41.5467 36.296 40.7627 36.7253 40.24 37.248C40.6507 37.6213 41.2107 37.9573 41.92 38.256C42.6667 38.5173 43.32 38.6293 43.88 38.592C43.6187 38.8533 43.2453 39.096 42.76 39.32C42.312 39.544 41.864 39.6933 41.416 39.768C42.1627 39.8053 42.9467 39.9547 43.768 40.216C44.6267 40.4773 45.336 40.7947 45.896 41.168C45.0747 40.9813 44.0853 41.0187 42.928 41.28C41.808 41.5413 40.912 41.9147 40.24 42.4C40.6133 42.5867 41.304 42.8107 42.312 43.072C43.3573 43.296 44.496 43.5013 45.728 43.688C46.96 43.8747 48.0987 44.0053 49.144 44.08C50.1893 44.1547 50.9173 44.1547 51.328 44.08C50.992 44.3413 50.3013 44.6027 49.256 44.864C48.248 45.088 47.1093 45.2933 45.84 45.48C44.5707 45.6667 43.432 45.7787 42.424 45.816C43.208 45.928 43.992 46.1333 44.776 46.432C45.56 46.7307 46.176 47.104 46.624 47.552C45.6907 47.4027 44.5707 47.5147 43.264 47.888C41.9573 48.224 40.9493 48.7093 40.24 49.344C40.8747 49.1947 41.6213 49.1947 42.48 49.344C43.376 49.4933 44.104 49.7547 44.664 50.128C43.992 49.9787 43.2267 49.9787 42.368 50.128C41.5093 50.24 40.8 50.5013 40.24 50.912C41.1733 50.688 42.2933 50.7813 43.6 51.192C44.9067 51.5653 45.9333 52.0507 46.68 52.648C45.7093 52.5733 44.5893 52.7227 43.32 53.096C42.0507 53.432 41.024 53.88 40.24 54.44C40.688 54.9253 41.36 55.3733 42.256 55.784C43.152 56.1573 43.9173 56.344 44.552 56.344C44.104 56.8293 43.432 57.2773 42.536 57.688C41.64 58.0613 40.8747 58.248 40.24 58.248C41.024 58.2107 41.92 58.3973 42.928 58.808C43.9733 59.2187 44.7387 59.7227 45.224 60.32C44.5147 60.0213 43.6 59.928 42.48 60.04C41.3973 60.152 40.52 60.432 39.848 60.88C39.848 61.4773 39.6427 62.1867 39.232 63.008C38.8213 63.8293 38.392 64.4267 37.944 64.8C37.9813 64.2027 37.7947 63.4933 37.384 62.672C36.9733 61.8507 36.544 61.2533 36.096 60.88C35.6107 61.328 35.1813 62.0187 34.808 62.952C34.472 63.8853 34.3413 64.688 34.416 65.36C33.6693 64.5013 33.1653 63.4187 32.904 62.112C32.8667 62.896 32.7173 63.6987 32.456 64.52C32.1947 65.3413 31.8773 66.032 31.504 66.592C31.6533 65.7707 31.6533 64.7813 31.504 63.624C31.3547 62.4667 31.0187 61.5333 30.496 60.824C29.5253 61.0107 28.48 61.44 27.36 62.112C26.2773 62.784 25.456 63.5307 24.896 64.352C25.1947 63.4187 25.736 62.4293 26.52 61.384C27.304 60.3013 28.144 59.5547 29.04 59.144C28.0693 59.1067 26.968 59.312 25.736 59.76C24.504 60.1707 23.5333 60.6933 22.824 61.328C23.16 60.432 23.7387 59.48 24.56 58.472C25.4187 57.4267 26.296 56.736 27.192 56.4C26.6693 56.2507 25.9787 56.2507 25.12 56.4C24.2987 56.512 23.6453 56.6987 23.16 56.96C23.1973 56.4747 23.384 55.9147 23.72 55.28C24.056 54.6453 24.4293 54.1227 24.84 53.712C24.504 53.936 24.1307 54.1413 23.72 54.328C23.3093 54.4773 22.936 54.5333 22.6 54.496C23.0107 54.384 23.4027 54.1227 23.776 53.712C24.1867 53.3013 24.4667 52.8907 24.616 52.48C24.168 52.4053 23.5893 52.3867 22.88 52.424C22.208 52.424 21.5733 52.4987 20.976 52.648C21.0507 52.7227 21.1253 52.816 21.2 52.928C20.752 53.0027 20.192 53.2267 19.52 53.6C18.848 53.9733 18.3813 54.328 18.12 54.664C18.7547 54.5893 19.4827 54.6827 20.304 54.944C21.1627 55.168 21.816 55.4853 22.264 55.896C21.6667 55.784 20.9387 55.8773 20.08 56.176C19.2587 56.4373 18.6053 56.7547 18.12 57.128C18.568 57.0533 19.072 57.0907 19.632 57.24C20.2293 57.352 20.7147 57.5387 21.088 57.8C20.64 57.688 20.1173 57.7253 19.52 57.912C18.96 58.0613 18.4933 58.248 18.12 58.472C18.7547 58.9573 19.5947 59.3493 20.64 59.648C21.6853 59.9093 22.6187 59.984 23.44 59.872C22.8053 60.3947 21.928 60.7307 20.808 60.88C19.7253 61.0293 18.792 60.992 18.008 60.768C18.232 61.6267 18.2133 62.672 17.952 63.904C17.728 65.136 17.336 66.1067 16.776 66.816C16.9627 65.92 16.8507 64.8747 16.44 63.68C16.0667 62.5227 15.6187 61.5893 15.096 60.88C14.6853 61.44 14.3307 62.168 14.032 63.064C13.7707 63.9973 13.7147 64.8 13.864 65.472C13.4533 64.912 13.1173 64.1653 12.856 63.232C12.5947 62.336 12.5387 61.552 12.688 60.88C12.24 61.5893 11.904 62.4853 11.68 63.568C11.456 64.688 11.456 65.6587 11.68 66.48C11.3067 65.92 11.008 65.2293 10.784 64.408C10.5973 63.5867 10.504 62.8213 10.504 62.112C10.392 62.672 10.2053 63.232 9.944 63.792C9.68267 64.352 9.42133 64.8 9.16 65.136C9.16 64.5013 8.992 63.736 8.656 62.84C8.32 61.944 7.83467 61.16 7.2 60.488ZM25.288 36.968C25.4747 36.968 25.7547 36.9307 26.128 36.856C26.5387 36.7813 26.9867 36.6507 27.472 36.464C26.7627 36.2027 26.1653 36.1093 25.68 36.184C26.016 35.736 26.5573 35.3627 27.304 35.064C28.088 34.7653 28.76 34.6533 29.32 34.728C28.984 34.3173 28.4427 33.9253 27.696 33.552C26.9493 33.1413 26.3147 32.8987 25.792 32.824C26.0907 32.4133 26.6133 32.0027 27.36 31.592C28.144 31.1813 28.7973 30.976 29.32 30.976C29.0213 30.6027 28.536 30.2293 27.864 29.856C27.2293 29.4827 26.688 29.2587 26.24 29.184C26.5387 28.848 27.0053 28.4933 27.64 28.12C28.312 27.7093 28.872 27.4667 29.32 27.392C28.9467 27.056 28.424 26.776 27.752 26.552C27.08 26.328 26.4453 26.1973 25.848 26.16C24.9893 26.5333 24.112 27.168 23.216 28.064C22.32 28.96 21.7413 29.8373 21.48 30.696C22.0027 30.808 22.6 30.752 23.272 30.528C23.944 30.2667 24.4853 29.9867 24.896 29.688C24.672 30.136 24.3173 30.6213 23.832 31.144C23.3467 31.6667 22.8613 32.0213 22.376 32.208C22.8987 32.3573 23.552 32.3947 24.336 32.32C25.12 32.208 25.7173 32.0213 26.128 31.76C26.0907 32.2453 25.8293 32.8053 25.344 33.44C24.896 34.0747 24.448 34.5413 24 34.84C24.4107 34.5787 24.952 34.392 25.624 34.28C26.3333 34.168 26.9307 34.1493 27.416 34.224C26.968 34.448 26.52 34.84 26.072 35.4C25.6613 35.96 25.4 36.4827 25.288 36.968ZM21.032 47.104C20.9573 47.1413 20.9013 47.1787 20.864 47.216C20.9013 47.2533 20.9573 47.3093 21.032 47.384V47.104ZM19.128 48.896C19.352 49.008 19.6133 49.12 19.912 49.232C20.248 48.8587 20.528 48.448 20.752 48C20.4907 47.9627 20.2293 47.944 19.968 47.944C19.632 48.2427 19.352 48.56 19.128 48.896ZM18.12 48.224C18.232 48.336 18.3813 48.448 18.568 48.56C18.5307 48.4107 18.512 48.2613 18.512 48.112C18.3627 48.112 18.232 48.1493 18.12 48.224ZM22.432 49.176C22.1333 49.3627 21.76 49.512 21.312 49.624C21.4987 49.6613 21.6853 49.68 21.872 49.68C22.0587 49.456 22.2453 49.288 22.432 49.176ZM18.12 51.136C18.4187 51.136 18.7733 51.2293 19.184 51.416C19.5947 51.6027 19.968 51.8267 20.304 52.088C20.528 51.4907 20.8827 50.8933 21.368 50.296C20.248 50.856 19.1653 51.136 18.12 51.136ZM59.5171 61.888C59.3678 62.0747 59.1998 62.448 59.0131 63.008C58.8265 63.568 58.6398 64.184 58.4531 64.856C58.2665 65.5653 58.1171 66.2 58.0051 66.76C57.9305 67.3573 57.9118 67.768 57.9491 67.992C57.8745 67.768 57.7998 67.3573 57.7251 66.76C57.6878 66.2 57.6691 65.5653 57.6691 64.856C57.6691 64.1467 57.6878 63.4933 57.7251 62.896C57.7625 62.2987 57.8371 61.888 57.9491 61.664C57.5385 62 57.1278 62.4853 56.7171 63.12C56.3438 63.792 56.1011 64.3893 55.9891 64.912C55.6531 64.5013 55.4478 63.904 55.3731 63.12C55.2985 62.336 55.3545 61.6827 55.5411 61.16C55.3918 61.5707 55.0745 62 54.5891 62.448C54.1411 62.9333 53.7305 63.2693 53.3571 63.456C53.5438 63.0827 53.5998 62.56 53.5251 61.888C53.4878 61.216 53.3758 60.6933 53.1891 60.32C52.5918 60.5067 51.9571 60.9173 51.2851 61.552C50.6505 62.1867 50.2398 62.8213 50.0531 63.456C49.9411 62.8213 50.0158 62.0933 50.2771 61.272C50.5385 60.4133 50.8371 59.76 51.1731 59.312C50.7625 59.872 50.1278 60.3573 49.2691 60.768C48.4478 61.1413 47.7198 61.3653 47.0851 61.44C47.6451 61.0293 48.1305 60.3947 48.5411 59.536C48.9518 58.64 49.1571 57.8373 49.1571 57.128C48.3731 57.1653 47.4958 57.4453 46.5251 57.968C45.5545 58.4907 44.8451 59.088 44.3971 59.76C44.9198 58.752 45.7225 57.8747 46.8051 57.128C45.9465 57.3893 45.2371 57.464 44.6771 57.352C45.2371 57.1653 45.8345 56.8293 46.4691 56.344C47.1411 55.8587 47.5891 55.3547 47.8131 54.832C47.3651 54.496 46.6931 54.216 45.7971 53.992C44.9385 53.7307 44.2291 53.656 43.6691 53.768C43.9305 53.2827 44.3785 52.7227 45.0131 52.088C45.6851 51.4533 46.2825 51.0613 46.8051 50.912C46.3945 50.3893 45.7038 49.96 44.7331 49.624C43.7998 49.288 42.9971 49.12 42.3251 49.12C42.7731 48.5973 43.4451 48.112 44.3411 47.664C45.2371 47.216 46.0211 46.9733 46.6931 46.936C46.1705 46.3387 45.4051 45.76 44.3971 45.2C43.3518 44.64 42.4371 44.3227 41.6531 44.248C42.2505 43.7253 43.1091 43.2773 44.2291 42.904C45.3491 42.5307 46.3011 42.3813 47.0851 42.456C46.8238 41.8587 46.3011 41.2613 45.5171 40.664C44.7705 40.0667 44.0611 39.6747 43.3891 39.488C43.9865 39.2267 44.7145 39.096 45.5731 39.096C46.4691 39.0587 47.2345 39.152 47.8691 39.376C47.5331 39.2267 47.1971 39.0027 46.8611 38.704C46.5251 38.368 46.3011 38.032 46.1891 37.696C46.4505 37.9947 46.8425 38.2187 47.3651 38.368C47.8878 38.5173 48.3358 38.592 48.7091 38.592C48.2985 38.2187 47.8691 37.696 47.4211 37.024C47.0105 36.3147 46.7865 35.68 46.7491 35.12C47.1225 35.5307 47.7011 35.8667 48.4851 36.128C49.2691 36.3893 49.9411 36.52 50.5011 36.52C50.6131 35.9227 50.5011 35.2133 50.1651 34.392C49.8291 33.5707 49.4558 32.9173 49.0451 32.432C49.6425 32.6187 50.2958 32.9733 51.0051 33.496C51.7145 34.0187 52.1998 34.56 52.4611 35.12C52.6851 34.2987 52.6665 33.328 52.4051 32.208C52.1811 31.088 51.8078 30.2107 51.2851 29.576C52.0318 29.912 52.7411 30.5467 53.4131 31.48C54.0851 32.4133 54.5145 33.272 54.7011 34.056C54.9625 33.4213 55.0185 32.6373 54.8691 31.704C54.7571 30.7707 54.5331 29.9867 54.1971 29.352C54.7571 29.8 55.2425 30.4347 55.6531 31.256C56.1011 32.0773 56.3625 32.8427 56.4371 33.552C56.7731 33.2907 57.1278 32.824 57.5011 32.152C57.9118 31.4427 58.1171 30.8827 58.1171 30.472C58.5278 30.6213 59.0131 30.976 59.5731 31.536C60.1331 32.0587 60.4878 32.5253 60.6371 32.936C60.5998 32.4133 60.6931 31.7787 60.9171 31.032C61.1411 30.2853 61.4398 29.7253 61.8131 29.352C61.8131 29.8747 61.9438 30.4907 62.2051 31.2C62.4665 31.9093 62.7651 32.4693 63.1011 32.88C62.9891 32.32 63.0638 31.6667 63.3251 30.92C63.5865 30.1733 63.8851 29.576 64.2211 29.128C64.0345 29.688 64.0158 30.36 64.1651 31.144C64.3518 31.8907 64.5945 32.5067 64.8931 32.992C65.3785 32.768 65.8638 32.3013 66.3491 31.592C66.8345 30.8453 67.1518 30.2107 67.3011 29.688C67.6371 30.0987 67.9171 30.7147 68.1411 31.536C68.4025 32.3573 68.5145 33.0293 68.4771 33.552C68.8505 33.328 69.2051 32.9547 69.5411 32.432C69.8771 31.872 70.0638 31.3493 70.1011 30.864C70.2878 31.2747 70.3625 31.7973 70.3251 32.432C70.2878 33.0667 70.1758 33.5893 69.9891 34C70.3251 33.9253 70.7171 33.72 71.1651 33.384C71.6131 33.0107 71.9118 32.6747 72.0611 32.376C72.2478 32.6747 72.3598 33.1227 72.3971 33.72C72.4345 34.28 72.3785 34.7093 72.2291 35.008C72.5278 34.672 73.0131 34.3547 73.6851 34.056C74.3945 33.7573 74.9731 33.6267 75.4211 33.664C75.1598 34.0373 74.9731 34.5973 74.8611 35.344C74.7865 36.0533 74.8051 36.632 74.9171 37.08C75.6265 37.2667 76.5038 37.2667 77.5491 37.08C78.6318 36.856 79.4718 36.5387 80.0691 36.128C79.9945 36.8747 79.6398 37.696 79.0051 38.592C78.3705 39.488 77.7545 40.1227 77.1571 40.496C77.7918 40.7573 78.5758 40.8507 79.5091 40.776C80.4798 40.664 81.2451 40.4213 81.8051 40.048C81.3945 40.608 80.7785 41.1493 79.9571 41.672C79.1731 42.1573 78.4451 42.4 77.7731 42.4C78.1465 42.4 78.6318 42.5307 79.2291 42.792C79.8265 43.016 80.2558 43.2773 80.5171 43.576C80.1438 43.688 79.6958 43.9307 79.1731 44.304C78.6878 44.6773 78.3518 45.032 78.1651 45.368C78.6878 45.704 79.3598 45.928 80.1811 46.04C81.0398 46.152 81.7678 46.1147 82.3651 45.928C81.9545 46.2267 81.4131 46.4507 80.7411 46.6C81.5625 46.7493 82.2905 46.992 82.9251 47.328C82.2905 47.0667 81.4878 47.0293 80.5171 47.216C79.5838 47.3653 78.7998 47.608 78.1651 47.944C78.4265 48.3547 78.8745 48.84 79.5091 49.4C80.1811 49.96 80.7598 50.3147 81.2451 50.464C80.9091 50.8373 80.3678 51.248 79.6211 51.696C78.8745 52.144 78.2585 52.3867 77.7731 52.424C78.2585 52.3867 78.7998 52.5173 79.3971 52.816C79.9945 53.0773 80.4425 53.3947 80.7411 53.768C80.3305 53.5067 79.7891 53.3573 79.1171 53.32C78.4825 53.2827 77.9411 53.3573 77.4931 53.544C77.5305 53.9173 77.6985 54.4213 77.9971 55.056C78.2958 55.6907 78.6131 56.12 78.9491 56.344C78.6505 56.568 78.1465 56.7547 77.4371 56.904C76.7278 57.016 76.1865 57.0347 75.8131 56.96C76.2985 57.296 76.7465 57.8373 77.1571 58.584C77.6051 59.2933 77.8291 59.9467 77.8291 60.544C77.4558 60.096 76.8958 59.6853 76.1491 59.312C75.4025 58.9013 74.7305 58.7147 74.1331 58.752C73.9465 59.0133 73.7598 59.4987 73.5731 60.208C73.3865 60.88 73.3118 61.384 73.3491 61.72C73.0131 61.7947 72.5091 61.72 71.8371 61.496C71.1651 61.2347 70.6985 61.0107 70.4371 60.824C70.3251 61.048 70.2505 61.4773 70.2131 62.112C70.1758 62.784 70.1758 63.4933 70.2131 64.24C70.2505 65.024 70.2878 65.7333 70.3251 66.368C70.3998 67.04 70.4745 67.488 70.5491 67.712C70.3625 67.5253 70.0451 67.096 69.5971 66.424C69.1865 65.752 68.7758 65.024 68.3651 64.24C67.9918 63.456 67.7118 62.8027 67.5251 62.28C67.6371 62.952 67.5998 63.68 67.4131 64.464C67.2265 65.2853 67.0025 65.976 66.7411 66.536C66.8158 65.8267 66.6478 65.0053 66.2371 64.072C65.8638 63.1387 65.4158 62.4107 64.8931 61.888C64.8931 62.2613 64.7625 62.6907 64.5011 63.176C64.2771 63.6987 64.0345 64.072 63.7731 64.296C63.7358 63.96 63.4558 63.5307 62.9331 63.008C62.4105 62.5227 61.2718 62.1493 59.5171 61.888ZM63.3811 54.048C63.4558 53.712 63.4185 53.32 63.2691 52.872C63.1571 52.3867 63.0078 51.9947 62.8211 51.696C63.1571 51.7333 63.5305 51.9013 63.9411 52.2C64.3891 52.4613 64.7065 52.7227 64.8931 52.984C64.7065 52.648 64.3891 52.312 63.9411 51.976C63.4931 51.6027 63.0825 51.3973 62.7091 51.36C63.0451 51.1733 63.4931 51.0427 64.0531 50.968C64.6131 50.856 65.0611 50.8747 65.3971 51.024C65.2105 50.7627 64.9118 50.5387 64.5011 50.352C64.0905 50.1653 63.7358 50.0533 63.4371 50.016C63.6611 49.8293 63.9785 49.68 64.3891 49.568C64.8371 49.4187 65.2105 49.344 65.5091 49.344C65.0238 49.3067 64.6131 49.12 64.2771 48.784C64.4638 48.784 64.6878 48.728 64.9491 48.616C65.2105 48.504 65.4158 48.3733 65.5651 48.224C65.3038 48.2613 65.0051 48.224 64.6691 48.112C64.3331 48 64.0718 47.8507 63.8851 47.664C64.1465 47.664 64.4451 47.6267 64.7811 47.552C65.1171 47.44 65.3785 47.2907 65.5651 47.104C65.3038 47.104 65.0051 47.048 64.6691 46.936C64.3331 46.7867 64.0905 46.6187 63.9411 46.432C64.2025 46.432 64.4825 46.3573 64.7811 46.208C65.1171 46.0587 65.3598 45.8907 65.5091 45.704C65.3598 45.5547 65.1171 45.424 64.7811 45.312C64.4451 45.1627 64.1651 45.088 63.9411 45.088C64.0905 44.9013 64.3145 44.7333 64.6131 44.584C64.9491 44.3973 65.2291 44.304 65.4531 44.304C65.1545 44.0427 64.7065 43.8747 64.1091 43.8C63.5118 43.688 63.0451 43.688 62.7091 43.8C62.8585 43.5013 63.1758 43.184 63.6611 42.848C63.4371 42.8853 63.2318 42.904 63.0451 42.904C63.3065 42.7173 63.5305 42.4373 63.7171 42.064C63.9038 41.6907 63.9971 41.3547 63.9971 41.056C63.7358 41.28 63.4931 41.5787 63.2691 41.952C63.0451 42.288 62.8771 42.6613 62.7651 43.072C62.7278 43.6693 62.6158 44.1547 62.4291 44.528C62.4291 44.528 62.4291 44.4907 62.4291 44.416C62.3545 44.192 62.2798 43.9307 62.2051 43.632C61.8318 43.7813 61.3651 43.8747 60.8051 43.912C60.2825 43.912 59.8345 43.8187 59.4611 43.632C59.6851 43.8933 60.0025 44.136 60.4131 44.36C60.8238 44.5467 61.1971 44.64 61.5331 44.64C61.0478 44.976 60.4878 45.1813 59.8531 45.256C60.4878 45.3307 60.9731 45.5547 61.3091 45.928C61.0105 45.8533 60.6558 45.872 60.2451 45.984C59.8718 46.096 59.5545 46.2453 59.2931 46.432C59.4798 46.6187 59.7411 46.8053 60.0771 46.992C60.4505 47.1413 60.7678 47.216 61.0291 47.216C60.8798 47.44 60.6185 47.6267 60.2451 47.776C59.8718 47.9253 59.5545 48 59.2931 48C59.5918 47.9627 59.9278 48 60.3011 48.112C60.7118 48.224 61.0291 48.3733 61.2531 48.56C60.5438 48.4853 59.9091 48.6907 59.3491 49.176C59.7225 49.1013 60.1705 49.1387 60.6931 49.288C61.2531 49.4373 61.6825 49.6613 61.9811 49.96C61.5705 49.9227 61.1038 50.0347 60.5811 50.296C60.0958 50.52 59.7225 50.7813 59.4611 51.08C59.7225 51.0053 60.0585 51.024 60.4691 51.136C60.9171 51.2107 61.2531 51.3413 61.4771 51.528C61.2158 51.5653 60.9171 51.7333 60.5811 52.032C60.2451 52.3307 60.0211 52.6107 59.9091 52.872C60.0585 52.7227 60.3011 52.6107 60.6371 52.536C60.9731 52.424 61.2158 52.3867 61.3651 52.424C61.5891 51.6027 61.9065 50.9493 62.3171 50.464C62.0558 50.9493 61.9811 51.5653 62.0931 52.312C62.2425 53.0213 62.6718 53.6 63.3811 54.048ZM59.9091 42.12C60.0958 42.456 60.4318 42.7733 60.9171 43.072C61.4025 43.3333 61.8318 43.5013 62.2051 43.576C62.1678 43.464 62.1491 43.352 62.1491 43.24C61.9998 42.8293 61.8131 42.4373 61.5891 42.064C61.3651 41.6533 61.1038 41.336 60.8051 41.112C60.8798 41.448 61.0291 41.84 61.2531 42.288C61.5145 42.6987 61.7945 42.9787 62.0931 43.128C61.7571 43.128 61.3465 43.0347 60.8611 42.848C60.4131 42.624 60.0958 42.3813 59.9091 42.12ZM61.3091 53.992C61.2345 53.768 61.2158 53.544 61.2531 53.32C61.2158 53.6187 61.2345 53.8427 61.3091 53.992ZM98.4708 61.328C97.9108 61.6267 97.3508 62.168 96.7908 62.952C96.2681 63.7733 95.9508 64.4827 95.8388 65.08C95.4655 64.5573 95.1668 63.848 94.9428 62.952C94.7188 62.056 94.6441 61.2907 94.7188 60.656C93.9721 61.104 93.3375 61.8133 92.8148 62.784C92.3295 63.792 92.0308 64.7067 91.9188 65.528C91.6575 64.744 91.6575 63.792 91.9188 62.672C92.1801 61.5893 92.5348 60.712 92.9828 60.04C92.7215 60.2267 92.2921 60.432 91.6948 60.656C91.1348 60.88 90.6868 60.9547 90.3508 60.88C90.5001 60.5813 90.5561 60.1147 90.5188 59.48C90.4815 58.8453 90.3881 58.3787 90.2388 58.08C89.7535 58.4533 89.0815 58.7707 88.2228 59.032C87.3641 59.2933 86.6548 59.3307 86.0948 59.144C86.5801 58.8453 87.0841 58.3413 87.6068 57.632C88.1295 56.9227 88.4468 56.2693 88.5588 55.672C88.1481 55.784 87.5881 55.7467 86.8788 55.56C86.2068 55.336 85.7215 55.0933 85.4228 54.832C85.7961 54.6827 86.2255 54.3467 86.7108 53.824C87.2335 53.3013 87.5508 52.8347 87.6628 52.424C86.9161 52.536 86.0388 52.48 85.0308 52.256C84.0228 51.9947 83.2201 51.6587 82.6228 51.248C83.3695 51.3227 84.2281 51.192 85.1988 50.856C86.2068 50.52 86.9721 50.072 87.4948 49.512C87.0095 49.512 86.4308 49.344 85.7588 49.008C85.0868 48.672 84.6015 48.3173 84.3028 47.944C84.4148 47.944 84.5455 47.9253 84.6948 47.888C84.5455 47.552 84.3961 47.0853 84.2468 46.488C84.0975 45.8533 83.9668 45.2373 83.8548 44.64C83.5935 44.6027 83.3695 44.584 83.1828 44.584C83.3321 44.4347 83.5188 44.2853 83.7428 44.136C83.5935 43.128 83.5375 42.456 83.5748 42.12C83.2015 41.9707 82.6788 41.9707 82.0068 42.12C81.3721 42.232 80.8681 42.3813 80.4948 42.568C80.4575 42.1573 80.5508 41.6347 80.7748 41C80.9988 40.3653 81.2601 39.9173 81.5588 39.656C81.1481 39.7307 80.6815 39.6747 80.1588 39.488C79.5988 39.264 79.1695 39.0213 78.8708 38.76C79.2815 38.7973 79.7481 38.7227 80.2708 38.536C80.7935 38.3493 81.2228 38.1253 81.5588 37.864C80.9241 37.9387 80.1775 37.808 79.3188 37.472C78.4228 37.0987 77.7321 36.688 77.2468 36.24C77.8815 36.2773 78.6468 36.128 79.5428 35.792C80.4015 35.456 81.0735 35.064 81.5588 34.616C81.7455 34.2053 81.8575 33.664 81.8948 32.992C81.9321 32.2827 81.8761 31.7227 81.7268 31.312C82.1375 31.424 82.6041 31.7227 83.1268 32.208C83.6495 32.656 84.0228 33.0667 84.2468 33.44C84.4708 33.2907 84.7135 33.048 84.9748 32.712C84.3401 32.376 83.8548 32.0213 83.5188 31.648C83.8175 31.6853 84.1535 31.6853 84.5268 31.648C84.9375 31.5733 85.3481 31.4613 85.7588 31.312V31.2C85.7961 31.2373 85.8335 31.256 85.8708 31.256C86.5428 30.9947 87.0841 30.696 87.4948 30.36C86.8601 30.4347 86.0948 30.2853 85.1988 29.912C84.3028 29.5387 83.6121 29.128 83.1268 28.68C83.7615 28.792 84.5268 28.6613 85.4228 28.288C86.3561 27.9147 87.0468 27.504 87.4948 27.056C86.7855 27.2053 85.9455 27.1867 84.9748 27C84.0415 26.8133 83.2948 26.496 82.7348 26.048C83.4441 26.16 84.2655 26.1227 85.1988 25.936C86.1321 25.7493 86.8975 25.4693 87.4948 25.096C87.0841 25.1333 86.5988 25.04 86.0388 24.816C85.5161 24.5547 85.1055 24.2747 84.8068 23.976C85.2175 24.0133 85.7028 23.9573 86.2628 23.808C86.8228 23.6587 87.2708 23.472 87.6068 23.248C87.3081 22.6507 87.1588 21.8853 87.1588 20.952C87.1588 20.0187 87.2895 19.2347 87.5508 18.6C87.5881 19.272 87.7935 20.0373 88.1668 20.896C88.5775 21.7173 89.0441 22.352 89.5668 22.8C89.9028 22.5013 90.1641 22.0533 90.3508 21.456C90.5748 20.8587 90.6868 20.336 90.6868 19.888C90.9108 20.112 91.1161 20.448 91.3028 20.896C91.5268 21.344 91.6761 21.7733 91.7508 22.184C91.7135 21.3627 91.8255 20.4853 92.0868 19.552C92.3481 18.6187 92.7401 17.8907 93.2628 17.368C93.1508 18.1893 93.2255 19.1413 93.4868 20.224C93.7855 21.3067 94.1775 22.1653 94.6628 22.8C94.7001 22.1653 94.9241 21.4187 95.3348 20.56C95.7455 19.664 96.1748 18.9733 96.6228 18.488C96.5855 19.16 96.7721 19.944 97.1828 20.84C97.5935 21.736 98.0415 22.408 98.5268 22.856C98.7881 22.52 99.1801 22.2213 99.7028 21.96C100.225 21.6987 100.711 21.568 101.159 21.568C100.748 21.7547 100.337 22.072 99.9268 22.52C99.5535 22.9307 99.3108 23.3413 99.1988 23.752C99.6841 23.8267 100.263 24.088 100.935 24.536C101.644 24.9467 102.129 25.3387 102.391 25.712C101.905 25.824 101.308 26.0853 100.599 26.496C99.9268 26.9067 99.4601 27.3173 99.1988 27.728C99.6841 27.6907 100.244 27.784 100.879 28.008C101.551 28.1947 102.055 28.456 102.391 28.792C101.905 28.792 101.327 28.904 100.655 29.128C100.02 29.3147 99.5348 29.576 99.1988 29.912C99.8335 30.3227 100.655 30.6213 101.663 30.808C102.073 30.472 102.297 30.248 102.335 30.136V30.024L102.391 30.08L102.447 29.912C102.484 30.024 102.484 30.1173 102.447 30.192C102.633 30.3787 102.82 30.64 103.007 30.976C103.455 30.976 103.865 30.9573 104.239 30.92C103.94 31.1067 103.604 31.2747 103.231 31.424C103.567 32.208 103.716 32.88 103.679 33.44C103.753 32.88 104.052 32.2453 104.575 31.536C105.135 30.8267 105.639 30.3413 106.087 30.08C106.049 30.6027 106.199 31.2747 106.535 32.096C106.908 32.9173 107.281 33.5147 107.655 33.888C108.476 33.7013 109.447 33.72 110.567 33.944C111.687 34.168 112.583 34.5227 113.255 35.008C112.433 34.896 111.463 34.9893 110.343 35.288C109.223 35.5493 108.364 35.9787 107.767 36.576C108.513 36.464 109.391 36.5573 110.399 36.856C111.444 37.1547 112.247 37.5653 112.807 38.088C112.06 37.9387 111.164 38.032 110.119 38.368C109.111 38.704 108.327 39.1333 107.767 39.656C108.177 39.88 108.551 40.3093 108.887 40.944C109.26 41.5787 109.484 42.12 109.559 42.568C109.148 42.344 108.588 42.176 107.879 42.064C107.169 41.9147 106.591 41.9333 106.143 42.12C105.919 42.4933 105.713 42.9787 105.527 43.576C105.377 44.136 105.359 44.6213 105.471 45.032C105.209 44.696 105.023 44.248 104.911 43.688C104.799 43.0907 104.761 42.568 104.799 42.12C104.649 42.3067 104.444 42.7547 104.183 43.464C103.921 44.1733 103.697 44.9013 103.511 45.648C103.324 46.3573 103.231 46.824 103.231 47.048C103.119 46.936 102.969 46.6747 102.783 46.264C102.633 45.816 102.465 45.3307 102.279 44.808C101.831 45.0693 101.308 45.2933 100.711 45.48C100.113 45.6293 99.6095 45.704 99.1988 45.704C99.6095 46.0773 100.207 46.432 100.991 46.768C101.775 47.0667 102.447 47.1973 103.007 47.16C102.596 47.5333 101.999 47.8693 101.215 48.168C100.431 48.4667 99.7588 48.616 99.1988 48.616C99.7588 48.8773 100.449 49.0453 101.271 49.12C102.129 49.1573 102.839 49.0827 103.399 48.896C103.137 49.2693 102.764 49.624 102.279 49.96C102.465 50.2587 102.615 50.632 102.727 51.08C102.839 51.4907 102.876 51.864 102.839 52.2C102.876 51.64 103.119 50.968 103.567 50.184C104.015 49.3627 104.463 48.7653 104.911 48.392C105.023 48.952 105.284 49.6427 105.695 50.464C106.143 51.2853 106.591 51.864 107.039 52.2C107.337 52.2 107.785 52.2933 108.383 52.48C108.98 52.6293 109.372 52.816 109.559 53.04C109.335 53.2267 109.055 53.5813 108.719 54.104C108.42 54.6267 108.252 55.056 108.215 55.392C108.887 55.2427 109.689 55.28 110.623 55.504C111.556 55.728 112.303 56.064 112.863 56.512C112.191 56.3627 111.388 56.4187 110.455 56.68C109.559 56.904 108.812 57.2027 108.215 57.576C108.7 58.0987 109.428 58.5093 110.399 58.808C111.369 59.0693 112.191 59.144 112.863 59.032C112.34 59.5173 111.612 59.9093 110.679 60.208C109.745 60.4693 108.924 60.5627 108.215 60.488C108.588 60.8613 108.905 61.384 109.167 62.056C109.428 62.7653 109.559 63.3813 109.559 63.904C109.372 63.4187 108.999 62.9147 108.439 62.392C107.879 61.8693 107.337 61.552 106.815 61.44C106.329 62.112 105.993 62.9893 105.807 64.072C105.62 65.192 105.676 66.144 105.975 66.928C105.639 66.4427 105.377 65.864 105.191 65.192C105.041 64.52 104.967 63.848 104.967 63.176C104.855 63.624 104.705 64.072 104.519 64.52C104.332 64.968 104.127 65.3413 103.903 65.64C103.94 65.0053 103.847 64.2587 103.623 63.4C103.436 62.5413 103.119 61.888 102.671 61.44C102.745 61.888 102.689 62.4107 102.503 63.008C102.353 63.6427 102.129 64.1467 101.831 64.52C101.868 64.072 101.681 63.5307 101.271 62.896C100.897 62.2613 99.9641 61.7387 98.4708 61.328ZM100.991 33.44C101.103 33.328 101.215 33.1973 101.327 33.048C101.215 33.1973 101.103 33.328 100.991 33.44ZM99.8708 42.12C99.9455 42.232 100.02 42.3627 100.095 42.512C100.02 42.3627 99.9455 42.232 99.8708 42.12ZM101.439 43.856C101.7 44.0053 101.924 44.136 102.111 44.248C101.849 43.3893 101.7 42.7547 101.663 42.344C101.7 42.7547 101.625 43.2587 101.439 43.856ZM85.0868 45.816V45.76C84.9001 46.7307 84.8255 47.44 84.8628 47.888C85.3108 47.776 85.7961 47.5707 86.3188 47.272C86.8415 46.9733 87.2335 46.6747 87.4948 46.376C87.2708 46.1147 86.9721 45.872 86.5988 45.648C86.2628 45.424 85.8708 45.2187 85.4228 45.032C85.2735 45.3307 85.1615 45.592 85.0868 45.816ZM101.271 52.088C101.532 51.864 101.756 51.528 101.943 51.08C102.167 50.632 102.26 50.2773 102.223 50.016L102.055 50.128C101.943 50.912 101.681 51.5653 101.271 52.088ZM134.802 61.776C134.429 62.2613 134.093 62.896 133.794 63.68C133.533 64.464 133.458 65.1547 133.57 65.752C133.309 65.192 133.178 64.4827 133.178 63.624C133.215 62.8027 133.402 62.1307 133.738 61.608C133.215 62.2053 132.786 62.9893 132.45 63.96C132.114 64.968 131.946 65.8827 131.946 66.704C131.685 65.92 131.629 65.0053 131.778 63.96C131.965 62.9147 132.245 62.0373 132.618 61.328C132.058 61.6267 131.461 62.112 130.826 62.784C130.191 63.456 129.762 64.1093 129.538 64.744C129.239 64.1467 129.09 63.3813 129.09 62.448C129.127 61.5147 129.258 60.7493 129.482 60.152C128.698 60.3013 127.821 60.6933 126.85 61.328C125.917 61.9627 125.207 62.5973 124.722 63.232C124.61 62.448 124.703 61.496 125.002 60.376C125.301 59.256 125.711 58.3787 126.234 57.744C125.599 57.7813 124.871 58.0053 124.05 58.416C123.266 58.7893 122.669 59.2373 122.258 59.76C122.445 59.1253 122.799 58.4533 123.322 57.744C123.845 57.0347 124.386 56.5307 124.946 56.232C124.535 56.0827 124.013 56.0453 123.378 56.12C122.743 56.1947 122.258 56.3627 121.922 56.624C121.997 56.288 122.165 55.9333 122.426 55.56C122.725 55.1867 123.023 54.8693 123.322 54.608C122.837 54.8693 122.258 55.056 121.586 55.168C120.914 55.28 120.317 55.2987 119.794 55.224C120.429 55.1867 121.101 54.9627 121.81 54.552C122.519 54.1413 123.061 53.6933 123.434 53.208C122.837 52.984 122.109 52.9467 121.25 53.096C120.391 53.208 119.701 53.4507 119.178 53.824C119.514 53.4133 119.999 53.0587 120.634 52.76C121.269 52.424 121.885 52.2187 122.482 52.144C121.922 52.1067 121.325 51.9573 120.69 51.696C120.055 51.4347 119.551 51.1547 119.178 50.856C119.738 50.8187 120.41 50.576 121.194 50.128C121.978 49.68 122.501 49.2133 122.762 48.728C122.389 48.6907 121.903 48.5413 121.306 48.28C120.746 48.0187 120.335 47.7387 120.074 47.44C120.485 47.4027 120.97 47.2533 121.53 46.992C122.127 46.7307 122.538 46.4507 122.762 46.152C122.165 45.592 121.325 45.2187 120.242 45.032C119.159 44.808 118.207 44.7333 117.386 44.808C118.058 44.36 118.954 44.08 120.074 43.968C121.157 43.8187 122.109 43.8747 122.93 44.136C122.445 43.7627 121.829 43.4453 121.082 43.184C120.373 42.9227 119.719 42.848 119.122 42.96C119.682 42.736 120.354 42.624 121.138 42.624C121.922 42.5867 122.575 42.7173 123.098 43.016C122.837 42.456 122.37 41.84 121.698 41.168C121.026 40.496 120.391 40.0853 119.794 39.936C120.317 39.6 121.063 39.4133 122.034 39.376C123.005 39.3013 123.77 39.3947 124.33 39.656C124.181 39.096 123.845 38.5173 123.322 37.92C122.837 37.3227 122.351 36.8747 121.866 36.576C122.426 36.5013 123.079 36.5947 123.826 36.856C124.61 37.08 125.189 37.3973 125.562 37.808C125.077 37.2853 124.61 36.576 124.162 35.68C123.714 34.784 123.453 33.9813 123.378 33.272C123.751 33.8693 124.386 34.4293 125.282 34.952C126.178 35.4373 126.999 35.7173 127.746 35.792C127.261 35.1947 126.943 34.336 126.794 33.216C126.645 32.096 126.663 31.1627 126.85 30.416C127.149 31.1253 127.709 31.8533 128.53 32.6C129.389 33.3093 130.173 33.8133 130.882 34.112C130.695 33.4773 130.714 32.656 130.938 31.648C131.162 30.64 131.479 29.8933 131.89 29.408C132.114 30.0053 132.543 30.7147 133.178 31.536C133.813 32.32 134.429 32.824 135.026 33.048C135.026 32.712 135.138 32.3013 135.362 31.816C135.586 31.2933 135.829 30.92 136.09 30.696C136.127 31.032 136.295 31.4427 136.594 31.928C136.893 32.376 137.191 32.6933 137.49 32.88C137.527 32.096 137.751 31.1813 138.162 30.136C138.61 29.0907 139.133 28.3067 139.73 27.784C139.618 28.568 139.73 29.5013 140.066 30.584C140.402 31.6667 140.831 32.5067 141.354 33.104C142.026 32.656 142.642 31.9467 143.202 30.976C143.799 30.0053 144.135 29.128 144.21 28.344C144.509 29.016 144.714 29.856 144.826 30.864C144.975 31.872 144.957 32.7493 144.77 33.496C144.994 32.824 145.423 32.1707 146.058 31.536C146.693 30.864 147.29 30.3787 147.85 30.08C147.477 30.6773 147.234 31.48 147.122 32.488C147.047 33.496 147.122 34.3547 147.346 35.064C147.906 34.9147 148.485 34.5413 149.082 33.944C149.717 33.3467 150.127 32.768 150.314 32.208C150.389 33.216 150.146 34.2427 149.586 35.288C150.109 34.728 150.669 34.3547 151.266 34.168C150.93 34.4293 150.613 34.84 150.314 35.4C150.053 35.9227 149.922 36.3893 149.922 36.8C150.37 36.8373 150.911 36.7253 151.546 36.464C152.218 36.2027 152.703 35.8853 153.002 35.512C153.039 35.9973 152.909 36.5573 152.61 37.192C152.311 37.7893 151.994 38.256 151.658 38.592C152.181 38.2933 152.927 38.1627 153.898 38.2C154.869 38.2 155.615 38.3307 156.138 38.592C155.653 38.9653 155.13 39.544 154.57 40.328C154.047 41.0747 153.73 41.7467 153.618 42.344C153.917 42.8293 154.402 43.2773 155.074 43.688C155.783 44.0987 156.418 44.3413 156.978 44.416C156.455 44.64 155.802 44.7147 155.018 44.64C154.234 44.528 153.581 44.3413 153.058 44.08C153.207 44.64 153.207 45.2747 153.058 45.984C152.946 46.6933 152.759 47.2907 152.498 47.776C152.61 47.2533 152.591 46.6373 152.442 45.928C152.293 45.1813 152.05 44.584 151.714 44.136C151.453 44.5467 151.229 45.0693 151.042 45.704C150.893 46.3387 150.855 46.8987 150.93 47.384C150.631 47.0107 150.407 46.5067 150.258 45.872C150.109 45.2 150.071 44.6213 150.146 44.136C149.81 44.5093 149.493 45.032 149.194 45.704C148.895 46.376 148.765 46.9547 148.802 47.44C148.466 47.104 148.149 46.6 147.85 45.928C147.551 45.2187 147.421 44.6213 147.458 44.136C147.197 44.6213 147.01 45.2373 146.898 45.984C146.786 46.7307 146.805 47.384 146.954 47.944C146.655 47.4587 146.431 46.8427 146.282 46.096C146.133 45.3493 146.151 44.752 146.338 44.304C146.114 44.9013 145.759 45.368 145.274 45.704C145.237 45.48 145.087 45.2 144.826 44.864C144.565 44.4907 144.341 44.248 144.154 44.136C143.967 44.3227 143.781 44.584 143.594 44.92C143.445 45.256 143.37 45.5547 143.37 45.816C143.183 45.6667 142.997 45.424 142.81 45.088C142.661 44.7147 142.586 44.3973 142.586 44.136C142.399 44.3973 142.101 44.6773 141.69 44.976C141.317 45.2747 140.943 45.4987 140.57 45.648V45.704L140.514 45.648C140.29 45.76 140.085 45.8347 139.898 45.872C139.935 45.7973 139.973 45.7227 140.01 45.648C139.263 45.6853 138.423 45.8347 137.49 46.096C136.594 46.3573 135.885 46.712 135.362 47.16C135.847 47.16 136.426 47.3093 137.098 47.608C137.77 47.9067 138.255 48.224 138.554 48.56C138.069 48.5973 137.49 48.784 136.818 49.12C136.183 49.456 135.735 49.8107 135.474 50.184C136.071 49.848 136.874 49.6427 137.882 49.568C138.89 49.456 139.73 49.4747 140.402 49.624C139.805 49.9227 139.189 50.408 138.554 51.08C139.039 51.8267 139.562 52.3867 140.122 52.76C140.271 52.536 140.383 52.144 140.458 51.584C140.533 51.024 140.533 50.632 140.458 50.408C140.682 50.3333 141.074 50.3333 141.634 50.408C142.194 50.4827 142.586 50.5947 142.81 50.744C143.183 50.52 143.613 50.0907 144.098 49.456C144.583 48.784 144.863 48.224 144.938 47.776C145.311 48 145.741 48.4293 146.226 49.064C146.711 49.6987 146.973 50.2027 147.01 50.576C146.935 50.2027 146.954 49.7733 147.066 49.288C147.215 48.8027 147.383 48.4107 147.57 48.112C147.495 48.4853 147.514 48.9333 147.626 49.456C147.738 49.9787 147.906 50.408 148.13 50.744C148.205 50.408 148.429 49.9973 148.802 49.512C149.175 48.9893 149.511 48.672 149.81 48.56C149.885 48.896 150.109 49.3067 150.482 49.792C150.893 50.24 151.229 50.5573 151.49 50.744C151.751 50.4827 151.957 50.1093 152.106 49.624C152.293 49.1387 152.367 48.728 152.33 48.392C152.591 48.6533 152.797 49.0267 152.946 49.512C153.095 49.9973 153.151 50.4267 153.114 50.8C153.301 51.1733 153.711 51.584 154.346 52.032C154.981 52.4427 155.522 52.704 155.97 52.816C155.709 53.1893 155.223 53.5627 154.514 53.936C153.842 54.272 153.282 54.44 152.834 54.44C152.834 55 153.021 55.672 153.394 56.456C153.767 57.24 154.159 57.8 154.57 58.136C154.047 58.2853 153.357 58.2853 152.498 58.136C151.639 57.9493 150.986 57.7253 150.538 57.464C151.023 58.0613 151.397 58.9387 151.658 60.096C151.957 61.2533 152.031 62.2053 151.882 62.952C151.434 62.3173 150.706 61.6827 149.698 61.048C148.727 60.4133 147.85 60.0587 147.066 59.984C147.439 60.6933 147.682 61.5707 147.794 62.616C147.943 63.6987 147.925 64.632 147.738 65.416C147.514 64.632 147.066 63.8107 146.394 62.952C145.759 62.0933 145.087 61.4773 144.378 61.104C144.005 61.7387 143.762 62.56 143.65 63.568C143.538 64.6133 143.575 65.4907 143.762 66.2C143.127 65.8267 142.53 65.1733 141.97 64.24C141.41 63.344 141.111 62.5227 141.074 61.776C140.663 62.1867 140.309 62.8027 140.01 63.624C139.749 64.4827 139.655 65.2107 139.73 65.808C139.431 65.584 139.095 65.2293 138.722 64.744C138.386 64.296 137.901 63.8107 137.266 63.288C136.669 62.7653 135.847 62.2613 134.802 61.776ZM137.098 41.56C137.173 41.9333 137.359 42.3627 137.658 42.848C137.509 42.2507 137.322 41.8213 137.098 41.56ZM140.458 42.68C140.346 42.9413 140.122 43.2213 139.786 43.52C139.45 43.8187 139.114 44.0613 138.778 44.248C139.039 44.5093 139.17 44.6213 139.17 44.584C139.581 44.808 139.917 45.032 140.178 45.256C140.327 44.8827 140.421 44.4533 140.458 43.968C140.533 43.4827 140.533 43.0533 140.458 42.68ZM158.494 59.368C157.71 59.5547 156.795 59.5547 155.75 59.368C154.705 59.144 153.846 58.808 153.174 58.36C153.958 58.5093 154.873 58.4907 155.918 58.304C156.963 58.1173 157.822 57.8 158.494 57.352C158.009 57.0533 157.393 56.8293 156.646 56.68C155.899 56.4933 155.265 56.4933 154.742 56.68C155.115 56.3813 155.619 56.176 156.254 56.064C155.47 55.9147 154.854 55.672 154.406 55.336C155.003 55.448 155.713 55.4667 156.534 55.392C157.355 55.28 158.009 55.0373 158.494 54.664C158.083 54.776 157.598 54.776 157.038 54.664C156.478 54.552 156.049 54.3653 155.75 54.104C156.161 54.1787 156.627 54.16 157.15 54.048C157.71 53.936 158.158 53.768 158.494 53.544C157.673 53.656 156.702 53.544 155.582 53.208C154.462 52.872 153.622 52.424 153.062 51.864C153.883 51.976 154.835 51.864 155.918 51.528C157.038 51.192 157.897 50.744 158.494 50.184C157.897 49.7733 157.113 49.4187 156.142 49.12C155.209 48.8213 154.387 48.728 153.678 48.84C154.089 48.5413 154.593 48.2613 155.19 48C155.787 47.7387 156.385 47.5707 156.982 47.496C155.937 47.3467 155.115 47.0107 154.518 46.488C155.115 46.5627 155.806 46.5067 156.59 46.32C157.374 46.096 158.009 45.816 158.494 45.48C157.71 45.704 156.758 45.6853 155.638 45.424C154.555 45.1253 153.697 44.7333 153.062 44.248C153.846 44.472 154.779 44.4533 155.862 44.192C156.982 43.9307 157.859 43.5387 158.494 43.016C158.083 42.68 157.505 42.4187 156.758 42.232C156.011 42.0453 155.358 42.008 154.798 42.12C155.171 41.8213 155.675 41.5973 156.31 41.448C155.041 41.336 154.033 41 153.286 40.44C154.033 40.7013 154.929 40.7573 155.974 40.608C157.019 40.4587 157.859 40.1413 158.494 39.656C158.009 39.0587 157.243 38.592 156.198 38.256C155.153 37.8827 154.257 37.6773 153.51 37.64C154.033 37.1173 154.798 36.6507 155.806 36.24C156.851 35.792 157.747 35.5867 158.494 35.624C158.158 35.2507 157.635 34.896 156.926 34.56C156.217 34.224 155.601 34.056 155.078 34.056C155.414 33.6453 155.937 33.2907 156.646 32.992C157.355 32.6933 157.971 32.5253 158.494 32.488C157.934 32.5253 157.262 32.376 156.478 32.04C155.694 31.704 155.115 31.3307 154.742 30.92C155.302 30.92 155.974 30.7707 156.758 30.472C157.579 30.1733 158.158 29.8 158.494 29.352C158.345 29.0533 157.99 28.68 157.43 28.232C156.907 27.7467 156.478 27.448 156.142 27.336C156.291 27 156.627 26.608 157.15 26.16C157.71 25.6747 158.158 25.3947 158.494 25.32C158.569 24.984 158.55 24.5173 158.438 23.92C158.326 23.2853 158.158 22.8187 157.934 22.52C158.27 22.408 158.755 22.3893 159.39 22.464C160.025 22.5013 160.491 22.6133 160.79 22.8C160.939 22.6507 161.107 22.296 161.294 21.736C161.518 21.176 161.723 20.56 161.91 19.888C162.097 19.1787 162.246 18.544 162.358 17.984C162.47 17.3867 162.507 16.976 162.47 16.752C162.582 16.9387 162.731 17.312 162.918 17.872C163.142 18.432 163.347 19.048 163.534 19.72C163.758 20.392 163.926 21.0267 164.038 21.624C164.15 22.184 164.187 22.576 164.15 22.8C164.523 22.1653 164.766 21.3813 164.878 20.448C164.99 19.4773 164.915 18.6373 164.654 17.928C164.99 18.6 165.233 19.4213 165.382 20.392C165.531 21.3253 165.475 22.128 165.214 22.8C165.699 22.3893 166.11 21.7547 166.446 20.896C166.819 20.0373 167.006 19.2907 167.006 18.656C167.491 19.0667 167.921 19.7013 168.294 20.56C168.667 21.4187 168.835 22.1653 168.798 22.8C169.097 22.7253 169.545 22.744 170.142 22.856C170.777 22.9307 171.225 23.0613 171.486 23.248C171.262 23.472 171.019 23.864 170.758 24.424C170.534 24.984 170.422 25.432 170.422 25.768C170.833 25.768 171.318 25.8987 171.878 26.16C172.438 26.4213 172.849 26.7013 173.11 27C172.699 27 172.214 27.1307 171.654 27.392C171.094 27.616 170.683 27.896 170.422 28.232C170.87 28.3067 171.43 28.568 172.102 29.016C172.774 29.4267 173.241 29.8373 173.502 30.248C173.054 30.3227 172.475 30.584 171.766 31.032C171.094 31.4427 170.646 31.8533 170.422 32.264C170.571 32.5627 170.907 32.8987 171.43 33.272C171.99 33.608 172.438 33.7947 172.774 33.832C172.587 34.1307 172.233 34.4667 171.71 34.84C171.187 35.176 170.758 35.3627 170.422 35.4C170.87 35.8107 171.505 36.1467 172.326 36.408C173.185 36.632 173.913 36.6693 174.51 36.52C174.025 36.8933 173.371 37.192 172.55 37.416C171.729 37.64 171.019 37.7147 170.422 37.64C170.945 38.088 171.654 38.4613 172.55 38.76C173.483 39.0213 174.286 39.1333 174.958 39.096C174.435 39.5067 173.707 39.8613 172.774 40.16C171.878 40.4587 171.094 40.5893 170.422 40.552C170.87 40.6267 171.411 40.8507 172.046 41.224C172.681 41.5973 173.147 41.9707 173.446 42.344C172.998 42.4187 172.438 42.6427 171.766 43.016C171.131 43.3893 170.683 43.7627 170.422 44.136C171.094 44.136 171.878 44.3227 172.774 44.696C173.67 45.032 174.342 45.4427 174.79 45.928C174.155 45.8533 173.39 46.0213 172.494 46.432C171.598 46.8427 170.907 47.272 170.422 47.72C171.169 47.608 172.065 47.7387 173.11 48.112C174.193 48.4853 174.977 48.952 175.462 49.512C174.715 49.4 173.819 49.5493 172.774 49.96C171.729 50.3333 170.945 50.7813 170.422 51.304C171.057 51.7893 171.897 52.1253 172.942 52.312C174.025 52.4613 174.939 52.424 175.686 52.2C174.753 52.7973 173.614 53.152 172.27 53.264C173.465 53.5253 174.454 53.9547 175.238 54.552C174.529 54.44 173.67 54.5333 172.662 54.832C171.691 55.1307 170.945 55.5227 170.422 56.008C170.795 56.4187 171.355 56.7733 172.102 57.072C172.886 57.3707 173.558 57.5387 174.118 57.576C173.745 57.9867 173.166 58.36 172.382 58.696C171.635 59.032 170.982 59.1813 170.422 59.144C170.422 59.48 170.571 59.9093 170.87 60.432C171.169 60.9173 171.449 61.272 171.71 61.496C171.411 61.6827 170.963 61.7573 170.366 61.72C169.806 61.6827 169.358 61.5893 169.022 61.44C168.873 61.7013 168.723 62.1867 168.574 62.896C168.425 63.6427 168.275 64.4453 168.126 65.304C168.014 66.2 167.939 67.0027 167.902 67.712C167.902 68.4587 167.939 68.9813 168.014 69.28C167.865 69.0187 167.715 68.5147 167.566 67.768C167.417 67.0587 167.267 66.256 167.118 65.36C167.006 64.5013 166.931 63.6987 166.894 62.952C166.894 62.2053 166.931 61.7013 167.006 61.44C166.558 61.9253 166.147 62.616 165.774 63.512C165.401 64.4453 165.251 65.248 165.326 65.92C164.878 65.4347 164.467 64.7253 164.094 63.792C163.758 62.896 163.627 62.112 163.702 61.44C163.366 61.776 163.086 62.2427 162.862 62.84C162.638 63.4747 162.545 64.016 162.582 64.464C162.246 64.1653 161.966 63.6987 161.742 63.064C161.555 62.4293 161.462 61.888 161.462 61.44C161.126 61.8133 160.865 62.336 160.678 63.008C160.491 63.7173 160.417 64.3147 160.454 64.8C160.155 64.3893 159.838 63.7547 159.502 62.896C159.203 62.0747 158.867 60.8987 158.494 59.368ZM187.068 61.72C186.844 62.056 186.414 62.4293 185.78 62.84C185.182 63.288 184.697 63.5493 184.324 63.624C184.286 63.2507 184.118 62.7093 183.82 62C183.558 61.2907 183.278 60.8053 182.98 60.544C182.644 61.0667 182.065 61.5707 181.244 62.056C180.46 62.5787 179.769 62.8773 179.172 62.952C179.47 62.4293 179.694 61.7013 179.844 60.768C179.993 59.8347 179.974 59.0693 179.788 58.472C179.489 58.7707 179.078 59.032 178.556 59.256C178.033 59.4427 177.566 59.536 177.156 59.536C177.454 59.312 177.734 58.9387 177.996 58.416C178.257 57.8933 178.388 57.4267 178.388 57.016C177.828 57.5013 177.025 57.8747 175.98 58.136C174.934 58.36 174.038 58.416 173.292 58.304C173.964 57.968 174.673 57.4453 175.42 56.736C176.204 55.9893 176.708 55.2427 176.932 54.496C176.596 54.272 176.11 54.1227 175.476 54.048C174.841 53.9733 174.337 53.9733 173.964 54.048C174.113 53.6747 174.412 53.2827 174.86 52.872C175.308 52.424 175.718 52.1253 176.092 51.976C175.494 51.5653 174.692 51.3413 173.684 51.304C172.676 51.2293 171.836 51.3227 171.164 51.584C171.612 51.024 172.321 50.5947 173.292 50.296C174.225 49.96 175.046 49.7733 175.756 49.736C175.42 49.3253 174.878 48.8773 174.132 48.392C173.422 47.9067 172.806 47.6267 172.284 47.552C172.582 47.104 173.105 46.656 173.852 46.208C174.598 45.7227 175.233 45.424 175.756 45.312C174.934 45.2747 174.038 45.0507 173.068 44.64C172.06 44.192 171.257 43.688 170.66 43.128C171.406 43.5013 172.34 43.6507 173.46 43.576C174.58 43.5013 175.494 43.2587 176.204 42.848C176.204 42.512 176.036 42.008 175.7 41.336C175.401 40.664 175.102 40.1973 174.804 39.936C175.065 39.712 175.55 39.4693 176.26 39.208C176.969 38.9467 177.51 38.8533 177.884 38.928C177.622 38.6293 177.38 38.144 177.156 37.472C176.932 36.8 176.838 36.2587 176.876 35.848C177.212 36.1093 177.716 36.2773 178.388 36.352C179.097 36.4267 179.657 36.4267 180.068 36.352C180.254 35.9413 180.329 35.3627 180.292 34.616C180.254 33.8693 180.105 33.3093 179.844 32.936C180.292 32.936 180.852 33.104 181.524 33.44C182.196 33.776 182.662 34.1307 182.924 34.504C182.737 34.2053 182.606 33.7947 182.532 33.272C182.457 32.7493 182.457 32.3013 182.532 31.928C182.644 32.3013 182.849 32.712 183.148 33.16C183.484 33.5707 183.82 33.8507 184.156 34C184.006 33.5893 183.988 33.0667 184.1 32.432C184.212 31.7973 184.38 31.312 184.604 30.976C184.678 31.3867 184.921 31.8347 185.332 32.32C185.742 32.8053 186.153 33.1413 186.564 33.328C186.974 32.768 187.254 31.984 187.404 30.976C187.553 29.968 187.497 29.128 187.236 28.456C187.721 28.8667 188.15 29.464 188.524 30.248C188.897 31.032 189.121 31.76 189.196 32.432C189.196 31.7973 189.326 31.0507 189.588 30.192C189.886 29.296 190.278 28.624 190.764 28.176C190.726 28.8853 190.876 29.7253 191.212 30.696C191.548 31.6293 191.94 32.376 192.388 32.936C192.798 32.6373 193.228 32.1707 193.676 31.536C194.161 30.864 194.441 30.2667 194.516 29.744C194.889 30.1173 195.206 30.696 195.468 31.48C195.729 32.264 195.822 32.8987 195.748 33.384C195.972 33.048 196.364 32.6747 196.924 32.264C197.521 31.8533 198.025 31.6107 198.436 31.536C198.361 31.9467 198.417 32.5067 198.604 33.216C198.828 33.888 199.07 34.3733 199.332 34.672C199.63 34.784 200.134 34.784 200.844 34.672C201.59 34.5227 202.094 34.3547 202.356 34.168C202.505 34.4667 202.636 34.9707 202.748 35.68C202.86 36.3893 202.86 36.8933 202.748 37.192C203.009 37.3787 203.494 37.5467 204.204 37.696C204.95 37.8453 205.473 37.864 205.772 37.752C205.884 38.0507 205.846 38.5733 205.66 39.32C205.51 40.0293 205.324 40.5147 205.1 40.776C205.51 40.7013 206.089 40.832 206.836 41.168C207.582 41.4667 208.105 41.7467 208.404 42.008C208.03 42.1947 207.601 42.624 207.116 43.296C206.668 43.9307 206.388 44.4533 206.276 44.864C206.836 45.3493 207.638 45.7787 208.684 46.152C209.729 46.488 210.625 46.6 211.372 46.488C210.849 47.048 210.084 47.552 209.076 48C208.068 48.448 207.19 48.6533 206.444 48.616C206.705 49.064 207.116 49.5307 207.676 50.016C208.236 50.464 208.777 50.744 209.3 50.856C208.777 50.968 208.161 50.968 207.452 50.856C206.742 50.7067 206.164 50.4827 205.716 50.184C205.716 50.6693 205.548 51.2667 205.212 51.976C205.436 52.536 205.548 53.0027 205.548 53.376C206.22 53.4133 206.966 53.656 207.788 54.104C208.609 54.5147 209.244 54.9627 209.692 55.448C209.094 55.1493 208.31 55.056 207.34 55.168C206.406 55.2427 205.641 55.448 205.044 55.784C205.081 56.232 205.286 56.736 205.66 57.296C206.033 57.8187 206.388 58.2107 206.724 58.472C206.313 58.5467 205.772 58.4907 205.1 58.304C204.465 58.1173 203.998 57.8747 203.7 57.576C204.297 58.136 204.838 58.9387 205.324 59.984C205.846 61.0293 206.089 61.9627 206.052 62.784C205.641 62.0747 204.969 61.3653 204.036 60.656C203.102 59.9467 202.225 59.5173 201.404 59.368C201.142 59.9653 200.993 60.7867 200.956 61.832C200.956 62.84 201.049 63.6427 201.236 64.24C200.601 64.0907 199.892 63.68 199.108 63.008C198.324 62.336 197.801 61.7013 197.54 61.104C197.278 61.8507 197.222 62.7467 197.372 63.792C197.558 64.8747 197.876 65.7333 198.324 66.368C197.876 65.9573 197.484 65.3973 197.148 64.688C196.849 63.9787 196.644 63.2693 196.532 62.56C196.42 63.344 196.196 63.9973 195.86 64.52C195.785 64.072 195.58 63.568 195.244 63.008C194.945 62.448 194.609 62.056 194.236 61.832C194.236 62.3173 194.086 62.9147 193.788 63.624C193.526 64.3707 193.228 64.9307 192.892 65.304C192.854 64.968 192.686 64.576 192.388 64.128C192.089 63.68 191.529 63.232 190.708 62.784C189.886 62.3733 188.673 62.0187 187.068 61.72ZM190.82 42.512C190.82 42.7733 190.932 43.1093 191.156 43.52C191.38 43.8933 191.604 44.1547 191.828 44.304C192.089 44.1173 192.294 43.7813 192.444 43.296C192.332 43.2587 192.238 43.2213 192.164 43.184C192.201 43.1467 192.332 43.1093 192.556 43.072C192.556 42.96 192.574 42.8667 192.612 42.792C192.014 42.68 191.51 42.6613 191.1 42.736C191.324 42.4 191.678 42.1013 192.164 41.84C192.649 41.5413 193.097 41.3733 193.508 41.336C193.209 41.2987 192.836 41.336 192.388 41.448C191.977 41.56 191.641 41.7093 191.38 41.896C191.492 41.5973 191.697 41.2987 191.996 41C192.332 40.7013 192.63 40.496 192.892 40.384C192.705 40.384 192.462 40.4773 192.164 40.664C191.865 40.8507 191.66 41.0373 191.548 41.224C191.548 41.224 191.51 41.112 191.436 40.888C191.361 41.3733 191.23 41.7653 191.044 42.064C191.081 41.728 191.025 41.3173 190.876 40.832C190.726 40.3467 190.54 39.9733 190.316 39.712C190.241 39.936 190.241 40.2533 190.316 40.664C190.39 41.0747 190.502 41.392 190.652 41.616C190.316 41.5787 189.942 41.4667 189.532 41.28C189.905 41.616 190.166 41.952 190.316 42.288C190.017 42.2507 189.644 42.288 189.196 42.4C188.785 42.4747 188.486 42.5867 188.3 42.736C188.486 42.7733 188.748 42.904 189.084 43.128C189.084 43.128 189.14 43.0533 189.252 42.904C189.252 43.016 189.27 43.1467 189.308 43.296C189.382 43.408 189.457 43.5013 189.532 43.576C189.532 43.576 189.476 43.576 189.364 43.576C189.513 43.8747 189.662 44.1173 189.812 44.304C189.812 44.0427 189.924 43.7253 190.148 43.352C190.409 42.9413 190.633 42.6613 190.82 42.512ZM193.844 43.184C193.582 43.0347 193.284 42.9227 192.948 42.848C192.985 42.8853 193.022 42.9413 193.06 43.016C193.358 43.016 193.62 43.072 193.844 43.184ZM188.692 44.304C188.692 44.2667 188.692 44.1733 188.692 44.024C188.692 44.024 188.692 44.1173 188.692 44.304ZM202.356 50.184C202.393 50.52 202.318 50.9307 202.132 51.416C201.982 51.9013 201.796 52.312 201.572 52.648C201.646 52.872 201.702 53.0587 201.74 53.208C202.225 52.7973 202.71 52.144 203.196 51.248C202.934 50.8 202.654 50.4453 202.356 50.184ZM196.98 50.856C197.278 51.0427 197.54 51.3973 197.764 51.92C198.025 52.4427 198.174 52.872 198.212 53.208C198.548 52.984 198.921 52.592 199.332 52.032C199.742 51.4347 199.948 50.9307 199.948 50.52C200.134 50.632 200.34 50.8 200.564 51.024C200.377 50.6507 200.172 50.3707 199.948 50.184C199.91 50.5573 199.705 51.024 199.332 51.584C198.958 52.144 198.604 52.4987 198.268 52.648C198.193 52.2747 197.969 51.8267 197.596 51.304C197.222 50.744 196.886 50.3707 196.588 50.184C196.289 50.52 196.065 50.9867 195.916 51.584C195.766 52.1813 195.729 52.6853 195.804 53.096C195.318 52.5733 195.038 51.808 194.964 50.8C194.852 51.4347 194.628 51.9387 194.292 52.312C194.852 52.7973 195.356 53.096 195.804 53.208C196.065 53.0213 196.308 52.6667 196.532 52.144C196.793 51.6213 196.942 51.192 196.98 50.856ZM191.268 50.184C191.342 50.52 191.361 50.9493 191.324 51.472C191.324 51.9947 191.249 52.48 191.1 52.928C191.286 53.2267 191.51 53.5253 191.772 53.824C192.07 54.0853 192.313 54.2533 192.5 54.328C192.388 53.9173 192.406 53.3573 192.556 52.648C192.742 51.9387 192.966 51.416 193.228 51.08C193.377 51.4533 193.713 51.864 194.236 52.312C194.31 52.0133 194.254 51.6587 194.068 51.248C193.881 50.8 193.676 50.4453 193.452 50.184C193.265 50.296 193.041 50.5387 192.78 50.912C192.518 51.248 192.388 51.528 192.388 51.752C192.164 51.64 191.921 51.416 191.66 51.08C191.398 50.7067 191.268 50.408 191.268 50.184ZM189.14 54.328C189.177 54.1413 189.289 53.9173 189.476 53.656C189.7 53.3947 189.924 53.152 190.148 52.928L190.092 52.816C189.569 53.376 189.252 53.88 189.14 54.328ZM218.262 61.888C217.889 62.224 217.516 62.7093 217.142 63.344C216.806 63.9787 216.601 64.5573 216.526 65.08C216.265 64.6693 216.097 64.072 216.022 63.288C215.985 62.5413 216.078 61.9253 216.302 61.44C216.041 61.888 215.593 62.392 214.958 62.952C214.324 63.512 213.745 63.848 213.222 63.96C213.446 63.4373 213.577 62.7653 213.614 61.944C213.652 61.1227 213.54 60.4693 213.278 59.984C212.569 60.096 211.785 60.4133 210.926 60.936C210.068 61.4587 209.452 62.0187 209.078 62.616C209.153 62.0187 209.358 61.3653 209.694 60.656C210.03 59.9467 210.422 59.3307 210.87 58.808C210.422 59.2187 209.881 59.5547 209.246 59.816C208.649 60.0773 208.07 60.208 207.51 60.208C208.145 60.0587 208.78 59.6853 209.414 59.088C210.086 58.4907 210.572 57.912 210.87 57.352C210.385 57.5013 209.75 57.5573 208.966 57.52C208.182 57.4453 207.566 57.2773 207.118 57.016C207.604 56.8667 208.145 56.5493 208.742 56.064C209.34 55.5413 209.75 55.0373 209.974 54.552C209.489 54.0667 208.761 53.6933 207.79 53.432C206.82 53.1707 205.998 53.096 205.326 53.208C205.924 52.8347 206.689 52.536 207.622 52.312C208.556 52.088 209.358 52.0507 210.03 52.2C209.508 52.0507 208.966 51.7333 208.406 51.248C207.809 50.7253 207.38 50.2213 207.118 49.736C207.566 49.9973 208.182 50.1467 208.966 50.184C209.788 50.184 210.441 50.0907 210.926 49.904C210.889 49.344 210.665 48.728 210.254 48.056C209.844 47.3467 209.414 46.824 208.966 46.488C209.526 46.488 210.18 46.6373 210.926 46.936C211.673 47.2347 212.233 47.608 212.606 48.056C212.158 47.4587 211.841 46.6187 211.654 45.536C211.505 44.416 211.524 43.5013 211.71 42.792C212.084 43.4267 212.681 44.1173 213.502 44.864C214.361 45.5733 215.145 46.0027 215.854 46.152C215.892 45.8907 216.078 45.5173 216.414 45.032C216.75 44.5093 217.03 44.192 217.254 44.08C217.404 44.2293 217.758 44.4347 218.318 44.696C218.878 44.92 219.289 45.0133 219.55 44.976C219.812 44.64 220.017 44.136 220.166 43.464C220.353 42.792 220.39 42.2507 220.278 41.84C220.502 41.952 220.726 42.1387 220.95 42.4C221.212 42.6613 221.436 42.9413 221.622 43.24C221.436 42.4187 221.118 41.8027 220.67 41.392C220.372 41.616 220.092 41.9893 219.83 42.512C219.569 43.0347 219.42 43.4827 219.382 43.856C219.084 43.632 218.785 43.2587 218.486 42.736C218.188 42.2133 218.038 41.7653 218.038 41.392C218.038 41.9147 217.833 42.5493 217.422 43.296C217.049 44.0427 216.657 44.584 216.246 44.92C216.284 44.3973 216.097 43.7627 215.686 43.016C215.313 42.232 214.921 41.6907 214.51 41.392C214.324 41.6907 213.969 41.9893 213.446 42.288C212.924 42.5867 212.494 42.7547 212.158 42.792C212.308 42.456 212.345 41.9893 212.27 41.392C212.233 40.7947 212.121 40.3467 211.934 40.048C211.86 39.6 211.636 39.0587 211.262 38.424C210.889 37.752 210.516 37.304 210.142 37.08C210.553 36.9307 211.132 36.856 211.878 36.856C212.625 36.856 213.204 36.968 213.614 37.192C213.689 36.7067 213.614 36.1467 213.39 35.512C213.166 34.84 212.886 34.3547 212.55 34.056C212.998 34.0933 213.521 34.2613 214.118 34.56C214.753 34.8587 215.22 35.1947 215.518 35.568C215.63 35.232 215.63 34.8027 215.518 34.28C215.406 33.72 215.257 33.2907 215.07 32.992C215.332 33.0667 215.612 33.216 215.91 33.44C216.246 33.664 216.526 33.9067 216.75 34.168C216.414 33.6453 216.153 33.048 215.966 32.376C215.78 31.704 215.742 31.1067 215.854 30.584C215.892 31.2187 216.134 31.9093 216.582 32.656C217.03 33.3653 217.534 33.888 218.094 34.224C217.833 33.5147 217.702 32.6373 217.702 31.592C217.74 30.5093 217.945 29.6507 218.318 29.016C218.468 29.7627 218.841 30.5653 219.438 31.424C220.073 32.2827 220.689 32.8987 221.286 33.272C221.212 32.6747 221.324 31.9093 221.622 30.976C221.921 30.0053 222.294 29.296 222.742 28.848C222.854 29.4827 223.153 30.2107 223.638 31.032C224.124 31.8533 224.609 32.4693 225.094 32.88C225.02 32.5067 225.057 31.8347 225.206 30.864C225.356 29.8933 225.561 28.8293 225.822 27.672C226.084 26.5147 226.364 25.4693 226.662 24.536C226.961 23.6027 227.241 22.9867 227.502 22.688C227.39 23.0613 227.372 23.7333 227.446 24.704C227.558 25.6747 227.708 26.7387 227.894 27.896C228.081 29.0533 228.286 30.1173 228.51 31.088C228.734 32.0587 228.94 32.712 229.126 33.048C229.686 32.712 230.246 32.152 230.806 31.368C231.404 30.5467 231.74 29.8187 231.814 29.184C232.225 29.6693 232.524 30.3973 232.71 31.368C232.897 32.3387 232.953 33.1413 232.878 33.776C233.14 33.104 233.7 32.4133 234.558 31.704C235.454 30.9573 236.257 30.4907 236.966 30.304C236.556 30.9387 236.332 31.8347 236.294 32.992C236.257 34.112 236.369 35.008 236.63 35.68C236.929 35.1573 237.433 34.672 238.142 34.224C238.889 33.776 239.561 33.5333 240.158 33.496C239.71 33.8693 239.262 34.4107 238.814 35.12C238.404 35.8293 238.161 36.4827 238.086 37.08C238.422 36.632 238.908 36.24 239.542 35.904C240.214 35.5307 240.83 35.3627 241.39 35.4C240.868 35.624 240.345 35.9787 239.822 36.464C239.3 36.9493 238.945 37.4533 238.758 37.976C239.393 37.528 240.214 37.1733 241.222 36.912C242.268 36.6507 243.164 36.5947 243.91 36.744C243.164 36.8933 242.361 37.304 241.502 37.976C240.644 38.6107 240.065 39.2827 239.766 39.992C240.14 39.9173 240.625 39.9733 241.222 40.16C241.82 40.3093 242.268 40.5147 242.566 40.776C242.193 40.888 241.764 41.1493 241.278 41.56C240.793 41.9333 240.476 42.288 240.326 42.624C240.737 42.96 241.297 43.2213 242.006 43.408C242.716 43.5947 243.332 43.6507 243.854 43.576C243.444 43.912 242.902 44.2293 242.23 44.528C241.558 44.7893 240.961 44.9013 240.438 44.864C240.998 44.864 241.67 45.1067 242.454 45.592C243.238 46.0773 243.798 46.544 244.134 46.992C243.574 47.0293 242.902 47.2907 242.118 47.776C241.334 48.224 240.774 48.672 240.438 49.12C240.961 49.12 241.596 49.3253 242.342 49.736C243.089 50.1467 243.612 50.576 243.91 51.024C243.388 51.024 242.753 51.248 242.006 51.696C241.297 52.1067 240.774 52.4987 240.438 52.872C240.924 53.3573 241.633 53.824 242.566 54.272C243.5 54.72 244.302 54.9253 244.974 54.888C244.564 55.448 243.873 55.9333 242.902 56.344C241.932 56.7547 241.11 56.9413 240.438 56.904C240.998 57.5013 241.82 58.024 242.902 58.472C244.022 58.8827 244.993 59.0133 245.814 58.864C245.18 59.3867 244.321 59.8347 243.238 60.208C242.156 60.5813 241.204 60.768 240.382 60.768C240.345 61.1413 240.401 61.5893 240.55 62.112C240.737 62.6347 240.961 63.0453 241.222 63.344C240.849 63.1947 240.457 62.9333 240.046 62.56C239.673 62.1867 239.412 61.8133 239.262 61.44C239.262 61.888 239.057 62.4107 238.646 63.008C238.273 63.6427 237.918 64.1093 237.582 64.408C237.545 63.96 237.358 63.4 237.022 62.728C236.686 62.0933 236.313 61.664 235.902 61.44C236.014 62.224 235.865 63.1573 235.454 64.24C235.081 65.36 234.614 66.1813 234.054 66.704C234.092 65.92 233.924 64.968 233.55 63.848C233.177 62.7653 232.71 61.9627 232.15 61.44C232.15 62.0747 231.926 62.784 231.478 63.568C231.068 64.3893 230.638 65.0053 230.19 65.416C230.265 64.8187 230.19 64.072 229.966 63.176C229.742 62.3173 229.425 61.6453 229.014 61.16C228.79 61.048 228.548 60.9547 228.286 60.88C228.286 61.1787 228.342 61.4027 228.454 61.552C227.969 61.5147 227.409 61.2907 226.774 60.88C226.662 60.88 226.569 60.8987 226.494 60.936C226.569 60.8987 226.625 60.8613 226.662 60.824C226.401 60.6 226.196 60.4133 226.046 60.264C225.972 60.936 226.046 61.7387 226.27 62.672C226.532 63.6427 226.924 64.3707 227.446 64.856C226.812 64.5947 226.158 64.0907 225.486 63.344C224.852 62.6347 224.441 61.944 224.254 61.272C224.478 62.0187 224.478 62.9707 224.254 64.128C224.03 65.3227 223.694 66.256 223.246 66.928C223.097 66.1067 222.63 65.192 221.846 64.184C221.1 63.176 219.905 62.4107 218.262 61.888ZM224.534 41.896C224.161 41.9333 223.676 41.84 223.078 41.616C223.676 42.4747 223.956 43.3333 223.918 44.192C224.105 44.08 224.348 43.856 224.646 43.52C224.945 43.1467 225.169 42.8107 225.318 42.512C224.758 42.4373 224.292 42.3067 223.918 42.12C224.366 42.12 224.87 42.0453 225.43 41.896L225.374 41.784L225.486 41.84C225.3 40.944 225.038 40.272 224.702 39.824C224.59 40.048 224.497 40.4027 224.422 40.888C224.385 41.336 224.422 41.672 224.534 41.896ZM222.518 41.336C222.593 41.672 222.574 42.0827 222.462 42.568C222.35 43.0533 222.182 43.464 221.958 43.8C222.07 44.024 222.145 44.248 222.182 44.472C222.406 44.0987 222.556 43.6133 222.63 43.016C222.742 42.4187 222.742 41.8773 222.63 41.392L222.518 41.336ZM224.59 54.832C224.478 54.496 224.441 54.104 224.478 53.656C224.516 53.1707 224.609 52.7787 224.758 52.48C224.833 52.7787 225.001 53.1333 225.262 53.544C225.561 53.9547 225.841 54.2347 226.102 54.384C226.177 54.2347 226.196 53.992 226.158 53.656C226.158 53.2827 226.121 53.0213 226.046 52.872C226.382 52.76 226.812 52.7787 227.334 52.928C226.998 52.7787 226.662 52.5733 226.326 52.312C226.028 52.0507 225.804 51.7893 225.654 51.528C225.953 51.7147 226.345 51.8267 226.83 51.864C227.316 51.9013 227.726 51.864 228.062 51.752C227.95 51.5653 227.745 51.36 227.446 51.136C227.185 50.912 226.942 50.8 226.718 50.8C226.868 50.688 227.054 50.576 227.278 50.464C227.204 50.3893 227.148 50.296 227.11 50.184C226.961 50.1467 226.83 50.1093 226.718 50.072C226.718 50.072 226.812 50.0533 226.998 50.016C226.961 49.9413 226.905 49.792 226.83 49.568C226.681 49.8293 226.588 50.2027 226.55 50.688C226.513 51.136 226.55 51.5093 226.662 51.808C226.364 51.6213 226.102 51.3227 225.878 50.912C225.692 50.5013 225.58 50.128 225.542 49.792C225.393 50.0907 225.3 50.464 225.262 50.912C225.225 51.36 225.262 51.752 225.374 52.088C224.74 51.5653 224.385 50.8933 224.31 50.072C224.198 50.2587 224.086 50.5573 223.974 50.968C223.9 51.3413 223.881 51.64 223.918 51.864C223.694 51.8267 223.396 51.7147 223.022 51.528C222.686 51.304 222.462 51.0987 222.35 50.912C222.388 51.1733 222.5 51.472 222.686 51.808C222.91 52.144 223.134 52.3867 223.358 52.536C223.097 52.5733 222.761 52.536 222.35 52.424C221.977 52.312 221.697 52.1813 221.51 52.032C221.66 52.1813 221.865 52.3307 222.126 52.48C222.425 52.6293 222.686 52.6853 222.91 52.648C222.761 52.7973 222.574 52.9093 222.35 52.984C222.649 52.984 222.873 53.0027 223.022 53.04C222.91 53.1893 222.817 53.4507 222.742 53.824C222.705 54.16 222.705 54.4213 222.742 54.608C223.004 54.4587 223.228 54.1973 223.414 53.824C223.601 53.4507 223.713 53.1333 223.75 52.872C223.937 53.096 224.068 53.4133 224.142 53.824C224.254 54.1973 224.404 54.5333 224.59 54.832ZM246.322 60.264C245.986 60.152 245.557 59.8907 245.034 59.48C244.512 59.0693 244.194 58.696 244.082 58.36C244.418 58.2853 244.848 58.0427 245.37 57.632C245.893 57.184 246.21 56.792 246.322 56.456C245.576 56.6427 244.68 56.5867 243.634 56.288C242.589 55.952 241.749 55.56 241.114 55.112C241.861 55.2987 242.757 55.2427 243.802 54.944C244.848 54.6453 245.688 54.272 246.322 53.824C245.8 53.488 245.128 53.264 244.306 53.152C243.485 53.0027 242.776 53.04 242.178 53.264C242.813 52.816 243.653 52.5547 244.698 52.48C243.653 52.2187 242.85 51.808 242.29 51.248C242.888 51.248 243.597 51.1173 244.418 50.856C245.277 50.5573 245.912 50.2027 246.322 49.792C245.762 49.4187 245.034 49.1573 244.138 49.008C243.242 48.8587 242.458 48.8587 241.786 49.008C242.346 48.5973 243.074 48.3173 243.97 48.168C244.866 48.0187 245.65 48.0373 246.322 48.224C246.024 47.9627 245.613 47.7387 245.09 47.552C244.568 47.328 244.101 47.216 243.69 47.216C243.952 46.9173 244.344 46.6747 244.866 46.488C245.426 46.3013 245.912 46.208 246.322 46.208C245.874 45.872 245.258 45.6107 244.474 45.424C243.69 45.2373 243.018 45.2 242.458 45.312C242.906 44.9387 243.522 44.6773 244.306 44.528C245.09 44.3413 245.762 44.304 246.322 44.416C246.098 44.1547 245.744 43.9493 245.258 43.8C244.81 43.6133 244.418 43.52 244.082 43.52C244.306 43.296 244.642 43.0907 245.09 42.904C245.576 42.7173 245.986 42.624 246.322 42.624C245.874 42.288 245.258 42.0267 244.474 41.84C243.728 41.616 243.074 41.5413 242.514 41.616C242.776 41.392 243.13 41.2053 243.578 41.056C244.026 40.8693 244.474 40.7387 244.922 40.664C244.026 40.552 243.261 40.2907 242.626 39.88C243.149 39.992 243.784 39.9733 244.53 39.824C245.277 39.6373 245.874 39.3947 246.322 39.096C245.8 39.0587 245.165 38.8533 244.418 38.48C243.672 38.1067 243.149 37.7147 242.85 37.304C243.373 37.2667 243.989 37.0613 244.698 36.688C245.445 36.2773 245.986 35.8853 246.322 35.512C246.397 35.1387 246.36 34.6533 246.21 34.056C246.061 33.4587 245.856 33.0107 245.594 32.712C245.968 32.6373 246.453 32.6933 247.05 32.88C247.648 33.0293 248.096 33.216 248.394 33.44C248.805 32.992 249.122 32.3573 249.346 31.536C249.57 30.7147 249.664 30.0053 249.626 29.408C250.037 29.8187 250.354 30.4533 250.578 31.312C250.84 32.1333 250.933 32.8427 250.858 33.44C251.381 32.9173 251.829 32.1333 252.202 31.088C252.576 30.0427 252.706 29.1467 252.594 28.4C253.154 28.9227 253.602 29.7067 253.938 30.752C254.274 31.7973 254.424 32.6933 254.386 33.44C254.76 32.992 255.04 32.376 255.226 31.592C255.45 30.7707 255.544 30.0613 255.506 29.464C255.88 29.9493 256.178 30.584 256.402 31.368C256.664 32.152 256.738 32.8427 256.626 33.44C257 33.2907 257.485 33.216 258.082 33.216C258.717 33.216 259.296 33.272 259.818 33.384C259.333 32.264 258.698 31.4053 257.914 30.808C258.661 31.1813 259.352 31.7973 259.986 32.656C260.658 33.4773 261.088 34.2987 261.274 35.12C261.349 34.7467 261.312 34.3173 261.162 33.832C261.05 33.3467 260.882 32.9547 260.658 32.656C260.994 32.8053 261.312 33.0853 261.61 33.496C261.946 33.8693 262.17 34.224 262.282 34.56C262.693 33.9627 262.954 33.1413 263.066 32.096C263.216 31.0133 263.178 30.136 262.954 29.464C263.626 29.7253 264.298 30.2853 264.97 31.144C265.642 32.0027 266.053 32.7867 266.202 33.496C266.688 32.936 267.061 32.152 267.322 31.144C267.584 30.0987 267.658 29.2213 267.546 28.512C268.032 29.072 268.424 29.856 268.722 30.864C269.058 31.8347 269.189 32.6933 269.114 33.44C269.45 33.216 269.954 33.0667 270.626 32.992C271.336 32.88 271.896 32.8987 272.306 33.048C271.97 33.3093 271.672 33.7573 271.41 34.392C271.149 35.0267 271 35.5493 270.962 35.96C271.672 35.8853 272.493 36.0347 273.426 36.408C274.397 36.7813 275.125 37.2293 275.61 37.752C274.901 37.752 274.061 37.9387 273.09 38.312C272.157 38.648 271.448 39.0587 270.962 39.544C271.261 39.8427 271.709 40.104 272.306 40.328C272.904 40.552 273.408 40.664 273.818 40.664C273.52 40.9627 273.072 41.2427 272.474 41.504C271.877 41.728 271.373 41.8213 270.962 41.784C271.037 42.008 271.074 42.4 271.074 42.96C271.112 43.4827 271.074 43.856 270.962 44.08C270.738 43.968 270.346 43.912 269.786 43.912C269.264 43.912 268.909 43.968 268.722 44.08C268.386 44.4533 268.088 44.9947 267.826 45.704C267.565 46.376 267.453 46.9547 267.49 47.44C267.154 47.0667 266.837 46.544 266.538 45.872C266.277 45.1627 266.202 44.5653 266.314 44.08C265.792 44.6773 265.362 45.4987 265.026 46.544C264.728 47.5893 264.672 48.4853 264.858 49.232C264.224 48.3733 263.776 47.328 263.514 46.096C263.477 46.4693 263.421 46.8053 263.346 47.104C263.757 47.552 264.074 47.9813 264.298 48.392C263.589 48.1307 262.674 48 261.554 48C260.434 47.9627 259.538 48.112 258.866 48.448C259.538 48.224 260.341 48.1867 261.274 48.336C262.245 48.448 263.029 48.7093 263.626 49.12C262.954 48.896 262.133 48.8587 261.162 49.008C260.229 49.12 259.464 49.3813 258.866 49.792C259.128 50.1653 259.594 50.5387 260.266 50.912C260.938 51.248 261.517 51.4347 262.002 51.472C261.778 51.808 261.405 52.1253 260.882 52.424C260.36 52.7227 259.856 52.928 259.37 53.04C259.893 53.04 260.434 53.1333 260.994 53.32C261.592 53.5067 262.077 53.7493 262.45 54.048C261.928 53.8987 261.312 53.936 260.602 54.16C259.893 54.3467 259.314 54.5893 258.866 54.888C259.65 54.8507 260.565 54.9813 261.61 55.28C262.656 55.5413 263.458 55.9333 264.018 56.456C263.272 56.344 262.357 56.4373 261.274 56.736C260.192 57.0347 259.389 57.464 258.866 58.024C259.09 58.5093 259.538 58.9947 260.21 59.48C260.882 59.9653 261.461 60.2827 261.946 60.432C261.536 60.768 260.92 61.048 260.098 61.272C259.314 61.4587 258.661 61.5147 258.138 61.44C257.802 61.8133 257.541 62.3733 257.354 63.12C257.168 63.8667 257.149 64.5013 257.298 65.024C256.85 64.3893 256.552 63.5867 256.402 62.616C256.29 63.4 256.048 64.2027 255.674 65.024C255.338 65.8453 254.946 66.4987 254.498 66.984C254.536 66.1627 254.368 65.192 253.994 64.072C253.621 62.952 253.154 62.0747 252.594 61.44C252.781 62.1493 252.837 62.9707 252.762 63.904C252.688 64.8747 252.445 65.6587 252.034 66.256C252.296 65.584 252.352 64.7627 252.202 63.792C252.053 62.8587 251.81 62.0747 251.474 61.44C251.064 62.112 250.728 62.952 250.466 63.96C250.242 65.0053 250.242 65.9013 250.466 66.648C250.056 65.976 249.757 65.136 249.57 64.128C249.384 63.12 249.365 62.224 249.514 61.44C249.066 61.9253 248.73 62.616 248.506 63.512C248.32 64.408 248.282 65.192 248.394 65.864C247.984 65.3413 247.629 64.576 247.33 63.568C247.032 62.5973 246.696 61.496 246.322 60.264ZM260.322 35.68C260.36 35.1947 260.285 34.6533 260.098 34.056C259.912 34.2053 259.725 34.3733 259.538 34.56C259.912 34.9707 260.173 35.344 260.322 35.68ZM262.282 44.08C262.469 44.64 262.506 45.312 262.394 46.096C262.618 46.2827 262.824 46.488 263.01 46.712C262.973 46.2267 262.898 45.76 262.786 45.312C262.674 44.8267 262.506 44.416 262.282 44.08ZM275.643 60.712C274.971 60.264 274.075 59.9653 272.955 59.816C271.872 59.6667 270.92 59.704 270.099 59.928C270.771 59.4053 271.667 59.0507 272.787 58.864C273.907 58.6773 274.859 58.696 275.643 58.92C275.456 58.6587 275.12 58.3413 274.635 57.968C274.149 57.5573 273.739 57.3333 273.403 57.296C273.589 56.9973 273.925 56.6613 274.411 56.288C274.896 55.9147 275.307 55.6907 275.643 55.616C275.307 55.3173 274.821 55.0373 274.187 54.776C273.552 54.5147 273.011 54.4213 272.563 54.496C272.861 54.272 273.253 54.048 273.739 53.824C274.261 53.6 274.747 53.4693 275.195 53.432C274.784 53.3947 274.336 53.2827 273.851 53.096C273.365 52.872 272.992 52.648 272.731 52.424C273.179 52.4987 273.683 52.424 274.243 52.2C274.84 51.976 275.307 51.7147 275.643 51.416C275.232 50.9307 274.672 50.5013 273.963 50.128C273.253 49.7173 272.6 49.4933 272.003 49.456C272.563 49.1947 273.253 49.1387 274.075 49.288C274.896 49.4 275.568 49.6053 276.091 49.904C276.315 49.8293 276.613 49.5867 276.987 49.176C277.397 48.7653 277.64 48.448 277.715 48.224C277.976 48.2987 278.312 48.5227 278.723 48.896C279.133 49.2693 279.376 49.568 279.451 49.792C279.488 49.6427 279.525 49.4747 279.563 49.288C279.227 49.0267 278.872 48.5973 278.499 48C278.125 47.3653 277.939 46.8427 277.939 46.432C277.976 46.8053 277.92 47.2347 277.771 47.72C277.659 48.2053 277.491 48.5973 277.267 48.896C277.341 48.5227 277.267 48.0747 277.043 47.552C276.856 47.0293 276.483 46.5627 275.923 46.152C275.549 46.264 274.877 46.3387 273.907 46.376C272.936 46.376 271.872 46.3387 270.715 46.264C269.52 46.152 268.437 46.04 267.467 45.928C266.496 45.7787 265.843 45.6293 265.507 45.48C265.88 45.5547 266.552 45.536 267.523 45.424C268.493 45.2747 269.557 45.0693 270.715 44.808C271.835 44.5093 272.861 44.2107 273.795 43.912C274.728 43.576 275.344 43.2773 275.643 43.016C275.008 42.4933 274.131 42.1013 273.011 41.84C271.928 41.5787 270.995 41.5227 270.211 41.672C270.621 41.336 271.144 41.0747 271.779 40.888C272.413 40.664 273.048 40.496 273.683 40.384C273.011 40.3467 272.283 40.272 271.499 40.16C270.715 40.0107 270.024 39.8613 269.427 39.712C268.792 39.5627 268.363 39.4133 268.139 39.264C268.4 39.3013 268.904 39.3013 269.651 39.264C270.36 39.2267 271.144 39.152 272.003 39.04C272.824 38.8907 273.571 38.7413 274.243 38.592C274.952 38.4427 275.419 38.2933 275.643 38.144C275.045 37.7333 274.28 37.4347 273.347 37.248C272.451 37.024 271.667 37.024 270.995 37.248C271.592 36.8747 272.32 36.5947 273.179 36.408C271.984 36.296 270.976 36.016 270.155 35.568C270.939 35.7547 271.872 35.792 272.955 35.68C274.037 35.5307 274.933 35.232 275.643 34.784C275.083 34.3733 274.355 34.1307 273.459 34.056C272.563 33.944 271.779 33.9627 271.107 34.112C271.629 33.7013 272.357 33.44 273.291 33.328C274.224 33.1787 275.008 33.216 275.643 33.44C275.419 33.216 275.064 33.0293 274.579 32.88C274.131 32.6933 273.739 32.6187 273.403 32.656C273.627 32.432 273.963 32.2453 274.411 32.096C274.896 31.9467 275.307 31.872 275.643 31.872C275.344 31.536 274.859 31.1813 274.187 30.808C273.552 30.4347 273.011 30.2293 272.563 30.192C272.824 29.8187 273.291 29.464 273.963 29.128C274.635 28.792 275.195 28.6053 275.643 28.568C275.045 28.1947 274.28 27.952 273.347 27.84C272.413 27.728 271.611 27.7467 270.939 27.896C271.536 27.5227 272.301 27.28 273.235 27.168C274.168 27.056 274.971 27.0747 275.643 27.224C275.195 27.0373 274.672 26.664 274.075 26.104C273.477 25.5067 273.104 24.9653 272.955 24.48C273.44 24.5547 274.075 24.48 274.859 24.256C275.68 23.9947 276.259 23.696 276.595 23.36C276.669 22.9493 276.949 22.4453 277.435 21.848C277.92 21.2133 278.349 20.784 278.723 20.56C278.835 20.9707 279.115 21.4933 279.563 22.128C280.048 22.7253 280.459 23.136 280.795 23.36C280.795 22.8373 281 22.2213 281.411 21.512C281.821 20.8027 282.213 20.28 282.587 19.944C282.587 20.4667 282.773 21.1013 283.147 21.848C283.52 22.5573 283.912 23.0613 284.323 23.36C284.099 22.576 284.061 21.6427 284.211 20.56C284.397 19.44 284.733 18.5627 285.219 17.928C284.995 18.712 284.957 19.6453 285.107 20.728C285.293 21.8107 285.629 22.688 286.115 23.36C286.413 23.1733 286.824 23.0427 287.347 22.968C287.907 22.8933 288.336 22.912 288.635 23.024C288.336 23.2107 288.037 23.5467 287.739 24.032C287.477 24.48 287.328 24.872 287.291 25.208C288.075 24.984 288.989 24.9093 290.035 24.984C291.117 25.0587 291.995 25.32 292.667 25.768C291.883 25.544 290.968 25.488 289.923 25.6C288.877 25.712 288 25.9547 287.291 26.328C287.589 26.7013 288.075 27.0187 288.747 27.28C289.456 27.504 290.053 27.5973 290.539 27.56C290.165 27.896 289.643 28.1947 288.971 28.456C288.336 28.68 287.776 28.792 287.291 28.792C287.888 29.2773 288.709 29.6507 289.755 29.912C290.8 30.136 291.696 30.1547 292.443 29.968C291.845 30.4533 291.024 30.808 289.979 31.032C288.971 31.256 288.075 31.312 287.291 31.2C287.851 31.7227 288.653 32.1333 289.699 32.432C290.744 32.6933 291.64 32.7307 292.387 32.544C291.789 33.0667 290.968 33.4773 289.923 33.776C288.915 34.0373 288.037 34.0747 287.291 33.888C287.664 34 288.149 34.28 288.747 34.728C289.381 35.176 289.792 35.568 289.979 35.904C289.568 35.9787 289.064 36.24 288.467 36.688C287.869 37.136 287.477 37.5467 287.291 37.92C287.701 37.92 288.168 38.0693 288.691 38.368C289.251 38.6293 289.661 38.928 289.923 39.264C289.549 39.3013 289.064 39.4507 288.467 39.712C287.907 39.9733 287.515 40.2533 287.291 40.552C287.701 40.552 288.205 40.72 288.803 41.056C289.437 41.3547 289.885 41.672 290.147 42.008C289.736 42.0453 289.232 42.232 288.635 42.568C288.037 42.8667 287.589 43.1653 287.291 43.464C287.664 43.576 288.075 43.8373 288.523 44.248C289.008 44.6213 289.325 44.976 289.475 45.312C289.101 45.2747 288.616 45.368 288.019 45.592C287.459 45.816 287.067 46.0587 286.843 46.32C286.581 46.5067 286.32 46.8053 286.059 47.216C286.021 47.664 286.133 48.2427 286.395 48.952C286.656 49.6613 286.955 50.184 287.291 50.52C287.925 50.52 288.709 50.7067 289.643 51.08C290.613 51.416 291.304 51.8453 291.715 52.368C291.043 52.2933 290.24 52.48 289.307 52.928C288.411 53.3387 287.739 53.7867 287.291 54.272C288 54.1973 288.821 54.2533 289.755 54.44C290.688 54.6267 291.416 54.944 291.939 55.392C291.267 55.2053 290.445 55.2427 289.475 55.504C288.541 55.728 287.813 56.064 287.291 56.512C287.813 56.5867 288.429 56.8667 289.139 57.352C289.885 57.8 290.408 58.2293 290.707 58.64C290.184 58.752 289.549 59.032 288.803 59.48C288.093 59.928 287.571 60.3573 287.235 60.768C286.899 61.104 286.619 61.6453 286.395 62.392C286.171 63.176 286.077 63.8293 286.115 64.352C285.667 64.0907 285.181 63.6613 284.659 63.064C284.136 62.4667 283.819 61.9253 283.707 61.44C283.408 61.664 283.147 62.0187 282.923 62.504C282.699 63.0267 282.587 63.4747 282.587 63.848C282.325 63.624 282.064 63.2507 281.803 62.728C281.579 62.2427 281.467 61.8133 281.467 61.44C281.056 62 280.757 62.7467 280.571 63.68C280.421 64.6133 280.421 65.416 280.571 66.088C280.16 65.528 279.861 64.7813 279.675 63.848C279.488 62.9147 279.488 62.112 279.675 61.44C279.189 62 278.779 62.784 278.443 63.792C278.107 64.8 278.013 65.6773 278.163 66.424C277.677 65.8267 277.229 65.0053 276.819 63.96C276.445 62.9147 276.053 61.832 275.643 60.712ZM283.259 46.432C282.885 46.88 282.587 47.4587 282.363 48.168C282.811 48.8773 283.259 49.4187 283.707 49.792C283.781 49.4933 283.968 49.1387 284.267 48.728C283.707 47.9067 283.371 47.1413 283.259 46.432Z" fill="black"/>
<path d="M404.416 66.872C403.504 66.872 402.784 66.608 402.256 66.08C401.728 65.552 401.512 64.856 401.608 63.992C401.704 63.128 402.16 61.904 402.976 60.32C403.792 58.688 404.776 56.864 405.928 54.848C407.128 52.784 408.376 50.672 409.672 48.512C411.016 46.304 412.264 44.192 413.416 42.176C414.568 40.112 415.504 38.288 416.224 36.704C416.944 35.12 417.304 33.896 417.304 33.032C417.304 32.648 417.136 32.288 416.8 31.952C416.512 31.568 416.176 31.376 415.792 31.376C415.072 31.376 414.184 31.64 413.128 32.168C412.072 32.648 411.256 33.104 410.68 33.536C408.76 34.928 406.696 36.608 404.488 38.576C402.28 40.544 400.024 42.68 397.72 44.984C395.464 47.288 393.28 49.664 391.168 52.112C389.056 54.56 387.136 56.96 385.408 59.312C383.728 61.664 382.36 63.872 381.304 65.936C381.304 65.936 381.184 65.936 380.944 65.936C380.752 65.984 380.536 66.008 380.296 66.008C379.96 66.008 379.672 65.96 379.432 65.864C379.24 65.816 379.168 65.648 379.216 65.36C380.944 60.8 383.056 56.168 385.552 51.464C388.096 46.712 390.592 42.248 393.04 38.072C394 36.536 394.96 34.976 395.92 33.392C396.88 31.76 397.912 30.224 399.016 28.784C399.256 28.496 399.616 28.28 400.096 28.136C400.624 27.944 401.152 27.848 401.68 27.848C402.352 27.848 402.952 27.968 403.48 28.208C404.008 28.448 404.272 28.832 404.272 29.36C404.272 29.792 404.032 30.32 403.552 30.944C402.64 32 401.776 33.104 400.96 34.256C400.192 35.36 399.4 36.488 398.584 37.64C397.144 39.752 395.728 41.888 394.336 44.048C392.944 46.208 391.552 48.368 390.16 50.528C391.264 49.328 392.656 47.84 394.336 46.064C396.064 44.24 397.936 42.368 399.952 40.448C402.016 38.48 404.128 36.656 406.288 34.976C408.496 33.248 410.608 31.856 412.624 30.8C414.688 29.696 416.56 29.144 418.24 29.144C420.736 29.144 421.984 30.44 421.984 33.032C421.984 34.376 421.672 35.744 421.048 37.136C420.424 38.48 419.776 39.728 419.104 40.88C418.72 41.504 418.12 42.488 417.304 43.832C416.536 45.128 415.648 46.64 414.64 48.368C413.632 50.048 412.6 51.8 411.544 53.624C410.536 55.448 409.576 57.2 408.664 58.88C407.8 60.512 407.08 61.928 406.504 63.128C405.976 64.328 405.712 65.144 405.712 65.576C405.712 65.72 405.76 65.84 405.856 65.936C405.568 66.08 405.328 66.272 405.136 66.512C404.944 66.752 404.704 66.872 404.416 66.872ZM420.499 65.288C419.107 65.288 417.811 64.856 416.611 63.992C415.459 63.128 414.883 61.952 414.883 60.464C414.883 59.36 415.243 58.04 415.963 56.504C416.683 54.968 417.619 53.408 418.771 51.824C419.971 50.24 421.291 48.776 422.731 47.432C424.171 46.04 425.587 44.936 426.979 44.12C428.419 43.256 429.715 42.824 430.867 42.824C431.251 42.824 431.659 42.896 432.091 43.04C432.571 43.136 432.907 43.376 433.099 43.76C434.059 43.712 434.731 44 435.115 44.624C435.499 45.2 435.691 45.92 435.691 46.784C435.691 48.08 435.307 49.544 434.539 51.176C433.819 52.808 432.955 54.368 431.947 55.856C430.939 57.344 430.027 58.568 429.211 59.528L429.643 59.6C431.035 59.648 432.259 59.36 433.315 58.736C434.419 58.112 435.427 57.32 436.339 56.36C437.299 55.4 438.211 54.488 439.075 53.624L439.219 53.48C439.363 53.48 439.435 53.6 439.435 53.84C439.435 53.936 439.411 54.008 439.363 54.056C438.691 55.016 437.827 56 436.771 57.008C435.715 57.968 434.563 58.784 433.315 59.456C432.067 60.08 430.819 60.392 429.571 60.392C429.379 60.392 429.187 60.392 428.995 60.392C428.851 60.392 428.683 60.368 428.491 60.32C427.867 60.992 427.123 61.712 426.259 62.48C425.395 63.248 424.459 63.92 423.451 64.496C422.491 65.024 421.507 65.288 420.499 65.288ZM420.931 64.208C422.179 64.208 423.379 63.68 424.531 62.624C425.731 61.568 426.715 60.608 427.483 59.744C427.195 59.6 426.835 59.36 426.403 59.024C425.971 58.64 425.755 58.256 425.755 57.872C425.755 57.2 426.211 56.576 427.123 56C428.035 55.376 429.043 54.824 430.147 54.344C431.251 53.864 432.043 53.504 432.523 53.264C433.003 52.496 433.435 51.608 433.819 50.6C434.203 49.544 434.395 48.56 434.395 47.648C434.395 47.12 434.275 46.664 434.035 46.28C433.843 45.896 433.435 45.704 432.811 45.704C432.283 45.704 431.731 45.824 431.155 46.064C430.579 46.304 430.075 46.544 429.643 46.784C427.195 48.08 424.963 49.856 422.947 52.112C420.979 54.368 419.611 56.864 418.843 59.6C418.795 59.888 418.723 60.2 418.627 60.536C418.579 60.824 418.555 61.112 418.555 61.4C418.555 62.168 418.747 62.84 419.131 63.416C419.515 63.944 420.115 64.208 420.931 64.208ZM439.071 65.288C438.207 65.288 437.439 65.048 436.767 64.568C436.143 64.04 435.831 63.32 435.831 62.408C435.831 61.592 436.119 60.488 436.695 59.096C437.319 57.704 438.039 56.216 438.855 54.632C439.719 53.048 440.559 51.584 441.375 50.24C442.191 48.896 442.839 47.84 443.319 47.072H440.511L440.943 46.352H443.751C444.423 45.248 445.071 44.144 445.695 43.04C446.367 41.936 447.087 40.856 447.855 39.8C448.287 39.176 448.743 38.6 449.223 38.072C449.751 37.496 450.423 37.208 451.239 37.208C451.527 37.208 452.007 37.304 452.679 37.496C453.351 37.64 453.975 37.832 454.551 38.072C455.175 38.312 455.511 38.576 455.559 38.864C454.839 39.104 453.999 39.728 453.039 40.736C452.127 41.696 451.263 42.728 450.447 43.832C449.631 44.888 449.007 45.728 448.575 46.352H451.887L451.455 47.072H448.071C447.591 47.696 446.871 48.704 445.911 50.096C444.999 51.44 444.039 52.904 443.031 54.488C442.023 56.072 441.159 57.56 440.439 58.952C439.767 60.296 439.431 61.328 439.431 62.048C439.431 63.008 439.959 63.488 441.015 63.488C441.735 63.488 442.575 63.128 443.535 62.408C444.495 61.688 445.479 60.8 446.487 59.744C447.495 58.688 448.455 57.632 449.367 56.576C450.279 55.472 451.047 54.56 451.671 53.84C452.295 53.12 452.655 52.76 452.751 52.76C452.895 52.76 452.967 52.856 452.967 53.048C452.967 53.096 452.751 53.384 452.319 53.912C451.935 54.392 451.527 54.872 451.095 55.352C450.663 55.832 450.375 56.144 450.231 56.288C449.607 57.008 448.863 57.872 447.999 58.88C447.183 59.888 446.271 60.896 445.263 61.904C444.255 62.864 443.223 63.68 442.167 64.352C441.111 64.976 440.079 65.288 439.071 65.288ZM468.66 65.072C467.364 65.072 466.092 64.736 464.844 64.064C463.596 63.392 462.972 62.288 462.972 60.752C462.972 60.56 462.972 60.392 462.972 60.248C463.02 60.056 463.068 59.864 463.116 59.672C463.5 57.992 464.244 56.312 465.348 54.632C466.452 52.904 467.772 51.296 469.308 49.808C470.844 48.272 472.452 46.904 474.132 45.704C475.86 44.504 477.468 43.544 478.956 42.824C479.196 42.728 479.484 42.608 479.82 42.464C480.156 42.272 480.42 42.176 480.612 42.176C480.996 42.176 481.38 42.488 481.764 43.112C482.196 43.688 482.556 44.336 482.844 45.056C483.132 45.728 483.276 46.232 483.276 46.568C483.276 46.856 483.228 47.072 483.132 47.216C483.036 47.312 482.868 47.408 482.628 47.504C480.036 48.56 478.236 50.336 477.228 52.832C477.18 52.976 477.084 53.048 476.94 53.048C476.748 53.048 476.652 52.952 476.652 52.76C476.652 52.184 476.844 51.464 477.228 50.6C477.66 49.736 478.164 48.92 478.74 48.152C479.316 47.384 479.796 46.832 480.18 46.496C477.444 47.792 474.9 49.472 472.548 51.536C470.244 53.6 468.54 56.072 467.436 58.952C467.052 59.864 466.86 60.776 466.86 61.688C466.86 62.312 467.004 62.864 467.292 63.344C467.58 63.776 468.084 63.992 468.804 63.992C469.236 63.992 469.668 63.92 470.1 63.776C470.58 63.584 471.012 63.392 471.396 63.2C473.7 62.048 475.764 60.68 477.588 59.096C479.412 57.464 481.188 55.712 482.916 53.84C483.012 53.744 483.084 53.696 483.132 53.696C483.18 53.696 483.204 53.744 483.204 53.84C483.204 53.984 483.156 54.152 483.06 54.344C483.012 54.488 482.94 54.608 482.844 54.704C481.596 56.288 480.108 57.92 478.38 59.6C476.652 61.28 474.948 62.672 473.268 63.776C471.924 64.64 470.388 65.072 468.66 65.072ZM483.304 65.288C482.248 65.288 481.432 64.952 480.856 64.28C480.328 63.56 480.064 62.696 480.064 61.688C480.064 60.92 480.472 59.648 481.288 57.872C482.104 56.096 483.136 54.104 484.384 51.896C485.632 49.688 486.928 47.456 488.272 45.2C489.664 42.944 490.912 40.928 492.016 39.152C493.168 37.376 494.032 36.056 494.608 35.192C495.088 34.472 495.568 33.776 496.048 33.104C496.528 32.384 497.248 32.024 498.208 32.024C498.496 32.024 499 32.12 499.72 32.312C500.488 32.504 501.208 32.744 501.88 33.032C502.6 33.272 502.984 33.536 503.032 33.824C502.12 34.16 500.992 35.096 499.648 36.632C498.352 38.12 496.936 39.944 495.4 42.104C493.912 44.216 492.448 46.424 491.008 48.728C489.616 50.984 488.368 53.072 487.264 54.992C486.16 56.864 485.368 58.304 484.888 59.312C484.696 59.744 484.48 60.224 484.24 60.752C484.048 61.28 483.952 61.808 483.952 62.336C483.952 63.104 484.36 63.488 485.176 63.488C485.896 63.488 486.736 63.128 487.696 62.408C488.656 61.688 489.64 60.8 490.648 59.744C491.656 58.688 492.616 57.632 493.528 56.576C494.44 55.472 495.208 54.56 495.832 53.84C496.456 53.12 496.816 52.76 496.912 52.76C497.104 52.76 497.2 52.856 497.2 53.048C497.2 53.096 496.984 53.384 496.552 53.912C496.168 54.392 495.736 54.872 495.256 55.352C494.824 55.832 494.56 56.144 494.464 56.288C493.84 57.008 493.096 57.872 492.232 58.88C491.368 59.888 490.432 60.896 489.424 61.904C488.464 62.864 487.456 63.68 486.4 64.352C485.344 64.976 484.312 65.288 483.304 65.288ZM498.474 65.072C497.13 65.072 495.834 64.736 494.586 64.064C493.338 63.392 492.714 62.288 492.714 60.752C492.714 60.56 492.714 60.392 492.714 60.248C492.762 60.056 492.81 59.864 492.858 59.672C493.242 58.04 493.938 56.432 494.946 54.848C496.002 53.264 497.25 51.776 498.69 50.384C500.178 48.992 501.714 47.768 503.298 46.712C504.93 45.608 506.49 44.768 507.978 44.192C508.122 44.096 508.266 44.024 508.41 43.976C508.554 43.928 508.722 43.904 508.914 43.904C509.346 43.904 509.706 44.144 509.994 44.624C510.282 45.056 510.498 45.56 510.642 46.136C510.786 46.712 510.858 47.168 510.858 47.504C510.858 48.368 510.594 49.256 510.066 50.168C509.586 51.032 509.034 51.752 508.41 52.328C508.698 52.328 508.986 52.352 509.274 52.4C509.562 52.4 509.85 52.4 510.138 52.4C510.234 52.4 510.282 52.448 510.282 52.544C510.282 52.592 510.234 52.64 510.138 52.688C510.042 52.736 509.946 52.784 509.85 52.832L507.69 53.048C506.346 53.192 504.954 53.408 503.514 53.696C502.074 53.984 500.706 54.368 499.41 54.848C498.786 55.712 498.162 56.792 497.538 58.088C496.914 59.384 496.602 60.584 496.602 61.688C496.602 62.312 496.746 62.864 497.034 63.344C497.322 63.776 497.826 63.992 498.546 63.992C498.978 63.992 499.41 63.92 499.842 63.776C500.322 63.584 500.754 63.392 501.138 63.2C503.442 62.048 505.506 60.68 507.33 59.096C509.154 57.464 510.93 55.712 512.658 53.84C512.754 53.744 512.826 53.696 512.874 53.696C512.97 53.696 513.018 53.744 513.018 53.84C513.018 53.984 512.97 54.152 512.874 54.344C512.778 54.488 512.682 54.608 512.586 54.704C511.29 56.336 509.802 57.992 508.122 59.672C506.442 61.304 504.738 62.672 503.01 63.776C501.666 64.64 500.154 65.072 498.474 65.072ZM501.21 52.688C502.314 52.592 503.418 52.52 504.522 52.472C505.626 52.376 506.73 52.328 507.834 52.328C508.122 51.944 508.362 51.44 508.554 50.816C508.794 50.144 508.914 49.568 508.914 49.088C508.914 48.848 508.866 48.608 508.77 48.368C508.674 48.08 508.458 47.936 508.122 47.936H507.906C507.33 48.128 506.586 48.512 505.674 49.088C504.81 49.664 503.97 50.288 503.154 50.96C502.338 51.632 501.69 52.208 501.21 52.688ZM524.423 65.288C523.511 65.288 522.743 65 522.119 64.424C521.495 63.848 521.183 63.08 521.183 62.12C521.183 61.112 521.447 59.984 521.975 58.736C522.551 57.44 523.055 56.36 523.487 55.496C522.911 56.216 522.167 57.128 521.255 58.232C520.343 59.288 519.359 60.344 518.303 61.4C517.247 62.456 516.167 63.344 515.063 64.064C513.959 64.736 512.903 65.072 511.895 65.072C510.839 65.072 510.071 64.688 509.591 63.92C509.159 63.152 508.943 62.312 508.943 61.4C508.943 60.824 509.015 60.248 509.159 59.672C509.495 58.424 510.143 57.128 511.103 55.784C512.063 54.392 513.167 53.072 514.415 51.824C515.711 50.528 517.031 49.328 518.375 48.224C519.719 47.12 520.919 46.208 521.975 45.488C522.455 45.152 522.959 44.864 523.487 44.624C524.063 44.336 524.663 44.192 525.287 44.192C526.055 44.192 526.751 44.408 527.375 44.84C528.047 45.224 528.647 45.68 529.175 46.208C529.319 45.968 529.415 45.776 529.463 45.632C529.559 45.488 529.751 45.416 530.039 45.416C530.231 45.416 530.663 45.488 531.335 45.632C532.055 45.776 532.727 45.944 533.351 46.136C533.975 46.328 534.287 46.52 534.287 46.712C534.287 46.76 534.263 46.784 534.215 46.784C533.879 47.264 533.519 47.744 533.135 48.224C532.751 48.704 532.367 49.184 531.983 49.664C530.783 51.296 529.607 53 528.455 54.776C527.351 56.552 526.391 58.4 525.575 60.32C525.479 60.608 525.383 60.92 525.287 61.256C525.191 61.544 525.143 61.856 525.143 62.192C525.143 63.056 525.575 63.488 526.439 63.488C527.111 63.488 527.927 63.128 528.887 62.408C529.847 61.688 530.831 60.8 531.839 59.744C532.895 58.688 533.879 57.632 534.791 56.576C535.703 55.472 536.471 54.56 537.095 53.84C537.719 53.12 538.079 52.76 538.175 52.76C538.319 52.76 538.391 52.856 538.391 53.048C538.391 53.144 538.031 53.624 537.311 54.488C536.591 55.304 535.727 56.264 534.719 57.368C533.711 58.472 532.799 59.48 531.983 60.392C531.167 61.256 530.639 61.808 530.399 62.048C529.631 62.768 528.719 63.488 527.663 64.208C526.607 64.928 525.527 65.288 524.423 65.288ZM512.687 63.416C513.071 63.416 513.455 63.32 513.839 63.128C514.271 62.888 514.631 62.696 514.919 62.552C516.791 61.448 518.567 60.008 520.247 58.232C521.927 56.456 523.487 54.56 524.927 52.544C526.367 50.528 527.663 48.608 528.815 46.784C528.719 46.736 528.551 46.712 528.311 46.712C527.831 46.712 527.327 46.88 526.799 47.216C524.063 48.608 521.447 50.504 518.951 52.904C516.503 55.256 514.463 57.776 512.831 60.464C512.639 60.752 512.447 61.112 512.255 61.544C512.111 61.928 512.039 62.312 512.039 62.696C512.039 63.176 512.255 63.416 512.687 63.416ZM543.634 65.288C542.674 65.288 541.882 65 541.258 64.424C540.682 63.848 540.394 63.08 540.394 62.12C540.394 61.16 540.682 59.984 541.258 58.592C541.882 57.2 542.626 55.736 543.49 54.2C544.354 52.664 545.218 51.224 546.082 49.88C546.946 48.488 547.642 47.36 548.17 46.496C547.834 46.64 547.426 46.712 546.946 46.712C546.418 46.712 545.866 46.64 545.29 46.496C544.714 46.304 544.162 46.112 543.634 45.92C543.49 46.16 543.13 46.688 542.554 47.504C542.026 48.272 541.378 49.184 540.61 50.24C539.89 51.248 539.146 52.232 538.378 53.192C537.61 54.152 536.938 54.968 536.362 55.64C535.834 56.264 535.474 56.576 535.282 56.576C535.138 56.576 535.066 56.504 535.066 56.36C535.066 56.264 535.138 56.144 535.282 56C535.81 55.328 536.338 54.68 536.866 54.056C537.442 53.432 537.994 52.784 538.522 52.112C539.338 51.104 540.106 50.048 540.826 48.944C541.546 47.84 542.194 46.688 542.77 45.488C542.482 45.296 542.098 45.008 541.618 44.624C541.138 44.24 540.898 43.856 540.898 43.472C540.898 42.944 541.21 42.44 541.834 41.96C542.458 41.432 543.154 40.976 543.922 40.592C544.69 40.208 545.266 39.92 545.65 39.728C545.842 39.68 546.274 39.512 546.946 39.224C547.666 38.888 548.05 38.72 548.098 38.72C548.29 38.72 548.386 38.816 548.386 39.008C548.386 39.056 548.074 39.368 547.45 39.944C546.874 40.472 546.274 41.12 545.65 41.888C545.074 42.656 544.786 43.424 544.786 44.192C544.786 44.864 545.074 45.344 545.65 45.632C546.226 45.92 546.802 46.064 547.378 46.064C547.906 46.064 548.338 45.968 548.674 45.776C548.818 45.536 549.01 45.416 549.25 45.416C549.634 45.416 550.114 45.488 550.69 45.632C551.266 45.728 551.794 45.92 552.274 46.208C552.754 46.448 552.994 46.808 552.994 47.288C552.994 47.624 552.898 47.96 552.706 48.296C552.514 48.584 552.298 48.848 552.058 49.088C551.578 49.664 550.858 50.528 549.898 51.68C548.986 52.784 548.026 54.008 547.018 55.352C546.058 56.696 545.242 57.968 544.57 59.168C543.898 60.368 543.562 61.304 543.562 61.976C543.562 62.456 543.73 62.864 544.066 63.2C544.402 63.488 544.81 63.632 545.29 63.632C546.058 63.632 546.946 63.272 547.954 62.552C548.962 61.784 549.97 60.872 550.978 59.816C552.034 58.712 553.018 57.632 553.93 56.576C554.842 55.52 555.61 54.632 556.234 53.912C556.858 53.144 557.218 52.76 557.314 52.76C557.506 52.76 557.602 52.856 557.602 53.048C557.602 53.144 557.362 53.48 556.882 54.056C556.402 54.632 555.778 55.352 555.01 56.216C554.29 57.032 553.522 57.872 552.706 58.736C551.938 59.552 551.266 60.272 550.69 60.896C550.114 61.52 549.73 61.904 549.538 62.048C548.77 62.768 547.858 63.488 546.802 64.208C545.794 64.928 544.738 65.288 543.634 65.288ZM560.959 57.08C560.767 57.08 560.623 56.984 560.527 56.792C560.479 56.552 560.455 56.36 560.455 56.216C560.455 55.448 560.791 54.2 561.463 52.472C562.183 50.744 563.119 48.752 564.271 46.496C565.423 44.24 566.671 41.936 568.015 39.584C569.359 37.232 570.679 35.072 571.975 33.104C573.319 31.088 574.519 29.456 575.575 28.208C576.679 26.96 577.495 26.336 578.023 26.336C578.311 26.336 578.911 26.384 579.823 26.48C580.735 26.528 581.599 26.648 582.415 26.84C583.279 26.984 583.711 27.2 583.711 27.488C583.711 27.536 583.687 27.584 583.639 27.632C583.591 27.68 583.567 27.728 583.567 27.776C580.207 31.136 576.967 34.76 573.847 38.648C570.775 42.536 567.967 46.496 565.423 50.528C564.895 51.344 564.391 52.208 563.911 53.12C563.431 53.984 562.927 54.848 562.399 55.712C562.303 55.952 562.111 56.24 561.823 56.576C561.535 56.912 561.247 57.08 560.959 57.08ZM560.023 66.728C559.735 66.728 559.303 66.584 558.727 66.296C558.151 66.008 557.623 65.648 557.143 65.216C556.663 64.832 556.423 64.472 556.423 64.136C556.423 63.704 556.759 63.224 557.431 62.696C558.103 62.168 558.823 61.712 559.591 61.328C560.407 60.896 560.983 60.68 561.319 60.68C561.511 60.68 561.679 60.752 561.823 60.896C562.015 60.992 562.111 61.136 562.111 61.328C562.111 61.472 562.087 61.568 562.039 61.616C561.463 62.336 561.079 63.128 560.887 63.992C560.839 64.184 560.815 64.52 560.815 65C560.815 65.432 560.767 65.816 560.671 66.152C560.575 66.536 560.359 66.728 560.023 66.728Z" fill="black"/>
</svg>
